<?xml version="1.0" standalone="no"?>
<!DOCTYPE svg PUBLIC "-//W3C//DTD SVG 20010904//EN"
 "http://www.w3.org/TR/2001/REC-SVG-20010904/DTD/svg10.dtd">
<svg version="1.0" xmlns="http://www.w3.org/2000/svg"
 width="1080.000000pt" height="1920.000000pt" viewBox="0 0 1080.000000 1920.000000"
 preserveAspectRatio="xMidYMid meet">
<metadata>
Created by potrace 1.15, written by Peter Selinger 2001-2017
</metadata>
<g transform="translate(0.000000,1920.000000) scale(0.100000,-0.100000)"
fill="#000000" stroke="none">
<path d="M0 17950 c0 -1248 0 -1250 20 -1238 14 9 25 10 37 2 11 -7 38 -7 82
-1 79 10 147 5 221 -16 66 -19 151 -57 165 -74 11 -12 27 -16 61 -14 26 1 36
44 23 99 -9 42 -24 53 -61 45 -41 -8 -80 20 -72 52 5 20 3 24 -10 19 -11 -4
-16 -1 -16 10 0 20 45 32 79 20 20 -7 27 -17 29 -42 3 -32 15 -41 27 -22 3 6
2 10 -2 10 -5 0 -5 31 0 69 11 78 -4 133 -32 124 -14 -4 -14 -3 -1 5 12 9 12
14 1 36 -11 20 -12 28 -1 40 18 22 14 124 -5 146 -17 18 -65 16 -65 -3 0 -16
-25 12 -49 56 -12 21 -19 42 -16 48 14 22 67 1 61 -25 -2 -6 -1 -7 2 -3 2 4
11 2 19 -4 19 -17 29 -1 37 61 6 48 2 68 -23 106 -12 18 -18 20 -41 11 -56
-21 -119 60 -78 101 19 19 60 15 57 -5 -1 -10 0 -21 1 -25 1 -5 3 -13 4 -19 2
-17 46 -32 47 -16 1 7 3 26 5 42 8 71 5 118 -11 152 -14 30 -16 52 -11 128 6
84 5 93 -15 119 -19 24 -27 27 -63 23 -49 -5 -86 13 -104 51 -11 24 -10 29 11
48 42 36 79 164 48 164 -4 0 -19 18 -33 40 -32 48 -26 90 13 101 35 10 181 9
274 -2 44 -5 127 -13 184 -19 58 -5 109 -14 115 -20 5 -5 27 -10 48 -10 l38 0
0 53 c0 52 -18 86 -46 87 -5 0 -24 14 -41 30 -28 25 -33 36 -33 76 0 51 17 73
58 74 13 0 21 4 18 9 -4 5 0 12 6 14 10 4 10 6 1 6 -7 1 -13 8 -13 16 0 8 -6
15 -12 15 -9 0 -8 4 2 10 10 6 11 10 3 10 -8 0 -13 13 -13 30 0 20 5 30 15 30
26 0 16 30 -12 40 -16 6 -36 15 -47 21 -11 7 -45 8 -92 4 -63 -6 -74 -10 -74
-26 0 -18 -9 -19 -119 -19 -116 0 -120 -1 -124 -22 l-4 -23 -8 23 c-4 12 -11
22 -16 22 -5 0 -9 7 -9 15 0 8 -9 20 -20 27 -11 7 -20 18 -20 23 0 6 -9 29
-21 50 -18 35 -35 154 -38 268 -1 15 -16 17 -171 17 l-170 0 0 -1250z"/>
<path d="M10309 19133 c-1 -38 -3 -77 -4 -88 -12 -78 -22 -296 -18 -361 3 -44
0 -112 -8 -154 -7 -41 -11 -100 -10 -130 1 -30 -6 -85 -15 -122 l-16 -68 -38
0 c-21 0 -40 -4 -42 -9 -1 -5 -25 -11 -53 -12 -47 -4 -50 -3 -53 21 -6 53 -13
69 -32 75 -11 3 -20 14 -20 23 0 14 -8 16 -48 14 -46 -4 -48 -2 -68 35 -15 27
-19 46 -13 68 15 66 -1 375 -21 375 -16 0 -40 -63 -40 -107 -1 -26 -7 -66 -15
-88 -8 -22 -15 -59 -15 -82 0 -26 -5 -43 -11 -43 -8 0 -10 -17 -6 -54 5 -48 3
-55 -14 -59 -10 -3 -19 -14 -19 -24 0 -32 -27 -62 -52 -56 -42 10 -78 28 -78
39 0 15 -68 -7 -80 -26 -6 -9 -71 -12 -262 -14 -267 -1 -279 -3 -293 -47 -6
-17 -16 -19 -86 -19 -46 0 -79 4 -79 10 0 6 -7 10 -15 10 -8 0 -15 6 -15 13 0
15 -84 67 -110 67 -14 0 -19 6 -17 21 3 32 -21 35 -33 5 -5 -14 -17 -26 -25
-26 -9 0 -18 -7 -22 -15 -8 -22 -68 -45 -118 -45 -36 0 -48 5 -69 30 -21 26
-29 29 -45 20 -11 -5 -36 -10 -55 -10 -19 0 -57 -4 -83 -9 -115 -22 -109 -23
-129 15 -10 18 -24 34 -31 34 -6 0 -18 6 -25 13 -28 26 -68 47 -93 47 -14 0
-37 7 -50 16 -18 12 -25 13 -25 4 0 -9 -7 -7 -20 5 -22 20 -14 22 -114 -32
-24 -13 -35 -13 -70 -3 -56 17 -82 30 -107 53 -16 15 -30 18 -67 14 -27 -3
-61 0 -82 8 -53 20 -100 26 -100 13 0 -18 -132 -1 -147 19 -12 15 -13 15 -14
-3 0 -17 -1 -16 -9 4 -12 27 -40 29 -47 2 -5 -19 -14 -20 -195 -20 -114 0
-187 4 -183 9 7 12 -35 26 -44 14 -7 -11 -18 -10 -54 5 -16 7 -37 12 -47 12
-10 0 -30 4 -44 10 -38 14 -137 -8 -144 -32 -2 -10 -8 -18 -13 -18 -5 0 -9
-17 -9 -37 l0 -38 -85 -3 -85 -2 0 50 c0 43 -3 50 -19 50 -11 0 -23 -4 -26
-10 -3 -5 -16 -10 -28 -9 -12 0 -16 3 -9 6 6 2 12 15 12 28 0 13 4 27 10 30 6
4 3 14 -8 25 -18 19 -33 21 -184 20 -45 0 -68 -4 -68 -12 0 -6 -3 -9 -6 -6 -3
3 -29 -3 -57 -13 -45 -17 -58 -18 -97 -7 -25 6 -50 18 -56 27 -10 13 -17 13
-56 -2 -24 -9 -54 -17 -66 -17 -15 0 -23 -8 -28 -27 -3 -16 -7 -33 -9 -39 -2
-8 28 -14 88 -19 189 -15 227 -20 256 -35 9 -4 29 -12 46 -16 26 -8 30 -15 33
-52 2 -29 -1 -47 -12 -58 -9 -8 -16 -22 -16 -30 0 -8 -5 -14 -10 -14 -7 0 -8
-13 -4 -34 3 -20 0 -51 -7 -73 -22 -64 -19 -100 11 -133 25 -28 30 -30 98 -27
56 1 75 -2 88 -15 16 -15 16 -21 4 -43 -7 -14 -19 -25 -27 -25 -7 0 -13 -6
-13 -14 0 -19 -52 -36 -111 -36 -47 0 -48 0 -55 -37 -4 -20 -4 -143 0 -272 4
-130 9 -382 11 -561 10 -924 17 -1259 26 -1302 8 -35 8 -57 0 -80 -10 -29 -9
-35 9 -50 11 -9 20 -28 20 -42 0 -27 -15 -35 -23 -13 -3 6 -3 -6 -1 -28 11
-124 12 -155 5 -155 -3 0 -14 33 -23 73 -14 62 -61 209 -88 272 -17 41 -30 82
-50 165 -12 47 -25 94 -30 105 -15 34 -52 197 -57 248 -5 52 12 67 23 20 10
-47 12 -49 13 -13 0 19 -6 49 -13 65 l-14 30 -10 -25 -11 -25 0 28 c-1 15 -8
39 -17 52 -17 26 -34 83 -39 125 -1 14 -8 39 -15 55 -24 57 -29 70 -46 125 -9
30 -20 59 -25 64 -5 6 -9 20 -9 32 0 13 -4 26 -10 29 -5 3 -10 23 -10 44 0 21
-10 64 -22 97 -14 41 -21 84 -22 141 -1 46 -4 83 -7 83 -3 0 -9 23 -12 51 -5
36 -2 60 10 85 17 34 16 34 -13 65 -19 21 -25 33 -16 36 14 5 17 50 3 55 -4 2
-12 13 -15 26 -6 16 -3 22 8 22 9 0 18 11 22 25 9 35 -4 78 -20 72 -10 -4 -13
8 -10 56 1 34 8 63 13 65 17 6 13 49 -9 94 -14 29 -17 45 -9 54 7 9 6 19 -3
33 -10 16 -10 23 0 33 6 6 12 32 11 57 0 38 -5 50 -29 69 -28 22 -31 23 -75 8
-57 -20 -89 -20 -105 -1 -7 8 -18 15 -25 15 -7 0 -25 10 -40 22 -23 18 -43 22
-119 25 -283 9 -393 2 -414 -28 -16 -23 -50 -24 -80 -4 -15 11 -27 13 -39 6
-10 -5 -21 -9 -25 -8 -31 2 -106 18 -171 36 -42 12 -123 26 -180 32 -184 19
-185 19 -203 47 -14 21 -18 23 -25 10 -6 -10 -23 -16 -45 -16 -21 0 -40 -6
-47 -17 -16 -21 -137 -24 -137 -3 0 14 -38 18 -63 7 -28 -13 -81 -4 -72 12 4
5 1 16 -5 24 -14 17 -4 35 37 68 13 10 23 24 23 32 0 7 7 18 16 25 13 12 12
16 -13 37 -61 53 -78 107 -45 143 16 17 33 20 134 21 64 0 121 -2 126 -5 8 -5
69 10 81 20 9 8 -23 34 -40 34 -11 0 -19 5 -19 10 0 6 -18 10 -39 10 -29 0
-49 8 -79 33 -23 17 -41 38 -41 45 -1 8 -17 12 -48 12 -41 0 -51 -4 -76 -32
-19 -22 -31 -29 -34 -20 -3 8 -17 3 -43 -18 -23 -19 -40 -26 -42 -19 -3 8 -43
13 -124 15 -65 1 -172 5 -236 10 -115 7 -118 8 -118 30 0 21 -5 24 -40 24 -22
0 -40 5 -40 10 0 16 -19 11 -37 -10 -10 -11 -29 -20 -44 -20 -15 0 -29 -6 -32
-13 -8 -20 3 -65 19 -78 8 -6 14 -24 14 -40 0 -16 5 -29 10 -29 6 0 10 -18 10
-40 0 -22 -4 -40 -10 -40 -18 0 -10 -41 13 -63 25 -25 51 -88 39 -96 -4 -4 -8
-39 -10 -79 -3 -60 0 -78 15 -94 16 -18 16 -22 1 -47 -12 -21 -14 -45 -11 -98
5 -65 4 -71 -21 -98 -17 -18 -24 -35 -20 -47 4 -14 0 -18 -19 -18 -20 0 -29
-11 -52 -58 -15 -32 -37 -63 -49 -68 -12 -5 -21 -19 -22 -32 -1 -12 -9 -31
-18 -41 -9 -9 -16 -23 -16 -29 0 -7 -4 -12 -9 -12 -5 0 -12 -12 -15 -26 -5
-20 -10 -23 -20 -15 -16 14 -26 4 -26 -26 0 -13 -10 -38 -22 -54 -18 -24 -23
-45 -24 -94 0 -39 -6 -72 -16 -86 -18 -28 -33 -99 -21 -99 5 0 9 -10 10 -21 1
-12 9 -29 17 -38 12 -14 12 -21 0 -56 -7 -22 -14 -41 -14 -42 0 -2 -4 -3 -10
-3 -5 0 -10 10 -11 23 l0 22 -9 -22 c-5 -13 -16 -23 -25 -23 -14 0 -16 7 -19
74 -1 11 -7 21 -14 24 -6 2 -12 16 -12 31 0 15 -9 36 -20 46 -20 18 -21 60 -4
153 4 21 1 40 -9 56 -11 17 -17 57 -20 134 -4 95 -7 113 -25 133 -15 15 -18
26 -12 34 14 17 15 178 1 183 -6 2 -11 15 -11 28 0 29 -25 42 -50 26 -10 -6
-34 -14 -54 -17 -40 -8 -101 16 -149 58 -34 31 -90 37 -358 38 -240 2 -266 -6
-253 -83 8 -53 -14 -49 -49 9 l-28 46 -66 -6 c-36 -4 -71 -11 -78 -17 -9 -8
-14 -7 -18 2 -2 7 -7 11 -10 8 -11 -10 34 -125 56 -142 31 -24 101 -23 142 2
26 16 38 18 59 10 14 -5 26 -14 26 -20 0 -5 20 -10 44 -10 49 0 82 -24 55 -41
-8 -5 -27 -8 -43 -7 -19 2 -33 -4 -40 -16 -6 -10 -20 -30 -32 -44 l-21 -26
-27 27 c-43 43 -112 36 -205 -20 -2 -1 -1 -13 3 -27 9 -35 61 -86 87 -86 13 0
30 -7 39 -15 14 -12 21 -13 43 -2 15 6 27 15 27 20 0 4 9 7 19 7 11 0 21 6 24
13 3 9 9 7 24 -5 14 -13 36 -18 76 -18 44 0 57 -3 57 -15 0 -8 7 -15 15 -15
16 0 20 -12 8 -23 -3 -4 -11 -3 -17 2 -17 13 -86 1 -86 -15 0 -8 -6 -14 -14
-14 -8 0 -16 -5 -18 -12 -6 -18 -74 -20 -89 -2 -6 8 -18 14 -25 14 -8 0 -14 5
-14 10 0 15 -14 12 -36 -9 -11 -10 -36 -24 -56 -30 -45 -15 -51 -30 -30 -72
11 -23 34 -43 68 -60 47 -24 56 -25 108 -16 35 7 56 15 56 24 0 20 15 16 72
-16 l52 -30 -28 -10 c-15 -6 -32 -11 -37 -11 -5 0 -9 -4 -9 -10 0 -5 -7 -10
-15 -10 -8 0 -15 -6 -15 -14 0 -24 -16 -26 -38 -6 -25 24 -79 26 -106 5 -11
-8 -31 -15 -45 -15 -38 0 -50 -12 -53 -48 -3 -39 30 -77 75 -86 79 -17 97 -17
144 -3 47 14 52 14 81 -5 35 -22 33 -34 -4 -48 -13 -5 -29 -21 -34 -35 -11
-30 -26 -32 -42 -5 -21 32 -81 25 -168 -19 -23 -12 -25 -80 -3 -100 42 -38
141 -47 271 -24 32 5 33 4 30 -21 -2 -18 -13 -33 -33 -44 -16 -9 -34 -23 -38
-29 -11 -18 -27 -16 -27 2 0 8 -10 16 -22 17 -42 2 -83 -4 -86 -13 -2 -5 -16
-9 -30 -9 -29 0 -82 -39 -82 -61 0 -14 71 -84 86 -84 24 -2 94 -27 94 -34 0
-10 -62 -41 -82 -41 -17 0 -39 -35 -43 -69 -3 -27 23 -61 47 -61 7 0 26 -7 42
-15 23 -12 36 -13 59 -5 46 16 100 13 93 -5 -3 -8 2 -22 11 -30 24 -24 8 -30
-73 -28 -53 2 -86 -2 -114 -14 -39 -17 -40 -18 -39 -69 2 -57 9 -64 76 -64 43
0 63 -9 56 -26 -3 -9 2 -14 13 -15 11 0 1 -7 -21 -15 -47 -17 -80 -12 -95 16
-15 28 -62 51 -81 39 -18 -11 -165 -4 -200 9 -29 11 -52 62 -42 88 3 9 17 28
29 42 18 19 24 36 24 71 0 26 -5 52 -12 59 -9 9 -9 12 3 12 10 1 8 5 -6 16
-16 12 -20 28 -22 89 -3 97 -13 115 -62 115 -24 0 -44 -7 -54 -18 -22 -24 -21
-28 7 -59 23 -25 42 -95 31 -114 -4 -5 -21 -9 -39 -9 -17 0 -36 -4 -42 -8 -19
-17 -95 -36 -102 -26 -4 6 -16 11 -27 11 -11 1 -45 4 -75 7 -30 3 -99 9 -152
13 -99 8 -116 16 -133 63 -5 16 -93 60 -119 60 -8 0 -17 4 -21 9 -3 5 -27 17
-53 27 -26 10 -64 29 -84 42 -20 13 -45 22 -55 20 -30 -7 72 -98 243 -218 73
-51 222 -162 299 -222 59 -46 94 -72 124 -90 41 -25 135 -102 166 -135 11 -13
76 -58 145 -102 69 -43 133 -86 142 -94 13 -12 17 -13 22 -2 2 7 -11 30 -30
51 -37 42 -40 49 -24 59 7 4 8 11 1 18 -6 8 -5 16 3 22 15 13 126 17 126 5 0
-6 7 -10 15 -10 8 0 15 4 15 10 0 5 15 1 32 -10 18 -11 45 -20 59 -20 14 0 34
-6 44 -14 19 -14 19 -15 -8 -27 -15 -7 -27 -16 -27 -20 0 -5 -6 -6 -13 -3 -8
3 -22 -12 -36 -36 -14 -25 -30 -40 -41 -40 -26 0 -41 -30 -28 -55 23 -41 61
-80 97 -96 20 -10 55 -35 79 -57 23 -21 69 -54 102 -74 33 -19 57 -38 54 -41
-3 -3 3 -8 13 -11 10 -3 27 -19 37 -34 10 -16 35 -39 55 -52 20 -13 72 -54
116 -90 44 -36 105 -85 136 -107 31 -23 62 -47 70 -55 8 -7 47 -40 88 -73 41
-33 86 -70 99 -82 28 -26 78 -53 98 -53 7 0 34 -27 60 -60 26 -33 51 -60 57
-60 5 0 7 -14 3 -32 -3 -18 -9 -60 -15 -93 -5 -33 -18 -81 -29 -107 -12 -26
-25 -69 -31 -95 -10 -49 -18 -79 -45 -168 -26 -88 -42 -124 -64 -147 -24 -27
-62 -111 -62 -140 0 -26 -31 -78 -47 -78 -19 0 -26 -19 -13 -35 10 -12 8 -16
-12 -24 -29 -11 -88 -97 -139 -201 -73 -152 -98 -209 -104 -239 -11 -51 15
-35 31 20 7 24 22 53 32 64 10 11 22 29 26 40 5 12 10 15 13 8 2 -6 -3 -23
-12 -37 -9 -13 -15 -30 -14 -38 4 -18 -20 -119 -30 -132 -5 -6 -25 -56 -44
-111 -19 -55 -40 -113 -46 -130 -6 -16 -27 -91 -46 -165 -20 -74 -54 -180 -75
-235 -21 -55 -48 -136 -59 -180 -20 -74 -29 -97 -75 -195 -9 -19 -23 -64 -30
-100 -16 -72 -39 -155 -51 -184 -7 -15 -5 -17 14 -11 33 10 37 -18 13 -119
-43 -182 -43 -180 -26 -193 13 -9 13 -18 4 -52 -6 -23 -9 -45 -6 -49 2 -4 1
-25 -3 -48 -10 -54 12 -134 38 -134 10 0 26 -9 36 -20 15 -17 17 -30 10 -97
-4 -43 -8 -120 -9 -171 -1 -61 -5 -92 -12 -92 -25 0 -33 -238 -11 -294 17 -40
11 -72 -9 -55 -8 6 -14 10 -14 8 -8 -96 -5 -150 10 -189 10 -25 23 -79 30
-120 14 -86 14 -85 12 -167 -2 -61 -2 -62 -33 -65 -44 -4 -59 -30 -34 -58 16
-17 17 -24 7 -40 -7 -11 -12 -38 -12 -59 0 -22 -5 -43 -10 -46 -7 -4 -8 -27
-5 -58 9 -74 9 -86 -3 -142 -41 -196 -72 -480 -72 -662 0 -84 -8 -210 -17
-285 -15 -112 -17 -192 -13 -508 7 -504 6 -1223 -2 -1560 -5 -246 -8 -281 -27
-332 -11 -32 -21 -68 -21 -80 0 -13 -11 -45 -25 -73 -13 -27 -25 -55 -25 -62
0 -7 -6 -16 -13 -20 -7 -4 -18 -19 -25 -33 -7 -14 -26 -45 -42 -70 -17 -25
-37 -60 -46 -79 -19 -40 -34 -62 -144 -210 -47 -63 -92 -116 -100 -119 -8 -3
-58 -51 -110 -107 -52 -57 -100 -103 -106 -104 -15 -1 -26 -29 -14 -36 5 -3
25 -6 45 -7 26 -1 35 -6 35 -18 0 -27 -26 -82 -54 -115 -17 -20 -26 -42 -26
-65 0 -26 3 -31 10 -20 5 8 10 23 10 32 0 10 9 22 20 28 11 6 20 19 20 29 0
10 7 24 16 32 8 7 22 25 29 39 8 15 30 35 50 44 20 10 39 24 42 32 8 22 41 16
59 -11 16 -24 15 -30 -11 -113 -38 -121 -69 -178 -130 -243 -8 -9 -15 -23 -15
-32 0 -10 -4 -17 -10 -17 -5 0 -10 -12 -10 -26 0 -21 4 -24 23 -20 12 3 16 3
10 0 -7 -3 -13 -13 -13 -23 0 -9 -4 -21 -10 -27 -10 -10 -2 -84 10 -84 10 0
19 36 21 80 l1 35 8 -30 7 -30 7 37 c5 21 13 38 18 38 6 0 8 18 6 40 -2 22 -1
40 3 40 4 0 9 19 13 42 7 44 39 88 63 88 18 0 16 -14 -7 -62 -11 -23 -20 -48
-20 -55 0 -7 -9 -13 -19 -13 -17 0 -19 -7 -19 -66 0 -67 -29 -202 -85 -389
-16 -55 -33 -118 -37 -140 -4 -22 -17 -69 -28 -105 -12 -36 -26 -98 -32 -138
-5 -40 -14 -80 -20 -90 -11 -20 -90 -232 -90 -243 0 -4 17 -14 38 -22 21 -8
44 -22 51 -31 19 -22 41 -20 41 4 0 11 4 19 9 17 10 -2 38 15 83 52 15 12 35
20 43 17 20 -7 20 -76 0 -102 -15 -20 -20 -72 -7 -90 16 -25 50 -34 76 -22 22
9 29 8 46 -7 19 -18 20 -17 20 1 0 11 -5 25 -12 32 -9 9 -9 12 0 12 9 0 9 5 0
21 -11 18 -10 23 11 40 14 12 28 16 33 11 17 -17 29 -204 27 -407 -1 -110 1
-218 5 -240 3 -22 15 -116 27 -210 35 -290 74 -393 202 -526 84 -88 126 -121
182 -140 22 -7 47 -18 55 -25 8 -6 39 -14 68 -18 29 -4 65 -12 80 -18 15 -6
36 -12 47 -14 34 -3 156 -31 162 -37 3 -3 -2 -27 -10 -54 -9 -26 -19 -65 -23
-87 -8 -48 -52 -116 -75 -116 -9 0 -23 -10 -31 -22 -13 -20 -17 -21 -32 -9 -9
8 -15 19 -14 25 2 15 -43 108 -50 101 -3 -2 -12 1 -20 8 -12 9 -16 9 -19 0 -3
-7 -11 -13 -19 -13 -10 0 -14 -13 -15 -42 -1 -43 -3 -42 -23 18 -5 13 -19 24
-37 28 -25 5 -29 10 -29 38 0 18 -7 44 -15 58 -8 14 -18 33 -21 43 -6 15 -13
17 -47 11 -23 -3 -57 -12 -77 -19 -33 -11 -35 -15 -35 -56 0 -36 -4 -46 -22
-54 -30 -13 -29 -25 3 -25 14 0 23 -4 19 -10 -3 -5 -15 -10 -26 -10 -11 0 -20
-7 -20 -17 -5 -58 -4 -102 0 -94 7 11 81 10 81 -1 0 -4 7 -8 15 -8 8 0 15 -4
15 -10 0 -5 11 -10 25 -10 30 0 33 -20 5 -45 -20 -18 -24 -17 -78 15 -27 17
-37 18 -55 9 -12 -7 -26 -18 -30 -25 -12 -21 -37 -17 -37 6 0 11 6 20 14 20 7
0 19 7 26 15 18 21 -13 21 -34 -1 -9 -8 -20 -13 -25 -9 -5 3 -12 1 -16 -5 -3
-5 -2 -10 3 -10 9 0 22 -32 19 -48 -1 -4 -8 -5 -16 -4 -12 3 -13 1 -2 -11 10
-13 9 -20 -4 -41 -16 -24 -16 -26 0 -26 15 0 15 -1 1 -16 -9 -8 -16 -22 -16
-30 0 -14 -23 -14 -96 1 -24 5 -33 3 -38 -10 -10 -26 12 -45 50 -45 24 0 34
-5 34 -15 0 -9 -9 -15 -22 -15 -22 -1 -22 -1 -4 -11 14 -9 20 -8 27 2 5 9 26
14 54 14 25 0 45 4 45 9 0 5 17 6 37 3 39 -7 91 7 133 34 14 8 59 26 100 39
41 12 84 28 95 35 11 6 41 17 67 24 33 9 45 17 41 27 -6 17 9 18 24 3 16 -16
43 -3 43 20 0 11 5 23 10 26 15 9 50 -4 50 -19 0 -7 -37 -51 -82 -98 -94 -97
-128 -140 -128 -161 0 -8 -7 -20 -15 -27 -8 -7 -15 -22 -15 -34 0 -34 -21 -57
-47 -50 -13 4 -23 11 -23 16 0 6 -10 8 -21 5 -24 -7 -125 9 -152 24 -11 6 -24
6 -37 -1 -10 -5 -42 -10 -69 -10 -39 0 -55 -5 -68 -20 -10 -11 -23 -20 -29
-20 -7 0 -36 -18 -65 -40 -29 -21 -64 -42 -79 -45 -18 -4 -35 -20 -51 -48 -13
-23 -23 -45 -21 -49 1 -5 -1 -8 -6 -9 -4 0 -14 -2 -22 -4 -72 -15 -90 -16 -90
-7 0 6 6 13 13 15 9 4 9 6 0 6 -8 1 -10 8 -6 18 6 17 6 17 -10 1 -11 -11 -17
-33 -17 -65 0 -26 -7 -57 -15 -67 -8 -11 -15 -28 -15 -38 0 -18 -28 -38 -54
-38 -22 0 -20 27 2 32 10 3 25 20 34 39 15 30 15 35 2 42 -22 12 -44 1 -44
-23 0 -11 -6 -20 -13 -20 -16 0 -47 -32 -47 -48 0 -6 8 -18 17 -28 16 -16 15
-18 -12 -40 -38 -30 -45 -30 -46 1 -1 14 -2 31 -3 38 -2 19 -47 28 -86 15 -19
-6 -41 -12 -47 -14 -19 -5 -16 -16 12 -46 14 -16 22 -33 19 -42 -7 -19 -9 -19
-33 -4 -37 23 -91 -44 -91 -114 0 -30 -26 -68 -52 -77 -22 -8 -28 -16 -28 -40
0 -24 4 -31 20 -31 11 0 20 -4 20 -10 0 -5 -11 -10 -24 -10 -28 0 -38 -10 -27
-28 11 -18 56 -1 81 31 17 21 19 31 11 41 -22 26 18 126 51 126 16 0 8 -47
-11 -64 -17 -15 -19 -62 -2 -52 3 2 6 -7 6 -20 0 -13 -2 -24 -5 -24 -3 0 -6
-12 -7 -27 -2 -28 -2 -28 9 -5 7 14 17 21 26 17 8 -3 21 0 28 6 19 16 18 -19
-1 -45 -12 -15 -22 -17 -59 -12 -27 4 -46 3 -46 -2 0 -5 -13 -12 -30 -15 -20
-5 -28 -11 -24 -21 8 -22 35 -28 53 -13 24 21 51 28 51 14 0 -8 4 -7 10 3 9
13 12 13 21 -2 12 -21 39 -24 39 -5 0 7 9 20 20 30 24 20 26 47 5 47 -8 0 -15
9 -15 20 0 11 4 20 9 20 5 0 14 14 20 30 6 20 17 30 30 30 30 0 33 16 5 29
-34 15 -44 14 -44 -5 0 -18 -28 -49 -37 -41 -3 3 -6 26 -7 51 -1 32 2 46 11
46 7 0 13 6 13 13 0 8 3 7 10 -3 8 -12 14 -10 37 12 31 29 56 36 90 25 30 -11
35 -32 12 -60 -19 -25 -19 -25 1 -20 11 3 20 11 20 18 0 19 55 75 74 75 18 0
20 13 6 41 -8 14 -6 25 6 44 9 14 21 25 28 25 20 -1 56 -38 56 -58 0 -11 7
-25 15 -32 27 -23 15 -100 -16 -100 -11 0 -26 -8 -35 -19 -13 -14 -25 -18 -53
-14 -26 4 -41 0 -50 -11 -20 -24 -3 -39 41 -33 33 4 39 3 36 -11 -2 -10 -11
-16 -20 -14 -9 1 -18 -4 -22 -13 -3 -10 1 -15 12 -15 10 0 13 -3 7 -8 -5 -4
-16 -17 -23 -30 -12 -22 -12 -22 29 -16 l42 7 -5 -41 c-5 -35 -3 -41 16 -46
30 -8 36 -7 36 5 0 6 7 17 15 26 14 14 14 17 0 32 -20 24 -19 28 11 35 19 5
33 0 55 -19 36 -30 49 -32 49 -6 0 14 5 18 19 14 10 -3 22 0 25 6 4 6 11 11
17 11 15 0 11 -22 -7 -34 -14 -11 -14 -14 4 -36 l20 -25 5 45 c10 85 1 124
-23 95 -17 -20 -51 -20 -44 0 4 8 1 22 -6 30 -7 8 -8 15 -3 15 5 0 17 14 26
30 17 27 21 30 57 24 35 -6 41 -4 51 19 9 21 17 25 45 22 19 -2 32 1 29 5 -3
5 5 10 16 12 13 2 29 16 38 35 9 18 22 33 29 33 15 0 16 17 0 22 -14 5 -4 38
12 38 5 0 10 -10 10 -22 1 -21 2 -22 14 -6 11 15 17 16 39 5 39 -18 31 -47
-13 -47 -20 0 -41 -5 -48 -12 -16 -16 -15 -41 2 -35 23 9 36 -12 25 -41 -7
-18 -6 -28 3 -34 10 -6 9 -11 -5 -19 -16 -10 -16 -12 5 -29 l23 -19 -25 -10
-25 -10 25 -1 c24 -1 68 -26 59 -33 -2 -2 -19 -7 -38 -11 -28 -5 -32 -4 -21 8
9 12 6 16 -23 21 -20 4 -45 4 -56 0 -16 -5 -27 0 -40 17 -19 22 -19 23 -40 4
-24 -22 -28 -71 -7 -79 8 -3 17 -3 21 1 4 4 26 7 48 8 23 0 50 4 60 8 12 6 17
4 17 -7 0 -9 -10 -17 -22 -19 -15 -2 -24 -11 -26 -25 -4 -26 22 -32 32 -8 5
14 36 22 36 9 0 -3 -11 -19 -24 -34 -22 -27 -25 -28 -52 -14 -16 9 -36 22 -44
29 -17 15 -34 9 -75 -30 -18 -16 -22 -25 -13 -28 7 -3 -2 -6 -19 -6 -31 -1
-33 -3 -33 -37 0 -31 3 -35 20 -29 11 3 29 3 40 0 18 -6 20 -15 20 -86 0 -72
2 -79 20 -79 11 0 20 7 20 15 0 17 25 28 83 39 31 6 37 4 37 -11 0 -21 -42
-43 -82 -43 -15 0 -28 -4 -28 -10 0 -5 7 -10 15 -10 9 0 15 -9 15 -21 0 -18
-5 -20 -45 -18 -52 3 -64 -4 -42 -26 32 -31 107 -12 107 28 0 8 9 17 20 20 11
3 20 12 20 21 0 9 6 16 14 16 9 0 17 16 21 42 9 50 24 33 28 -33 1 -26 8 -44
16 -47 11 -4 13 2 8 25 -3 17 -3 43 2 59 7 29 7 29 26 -19 14 -38 16 -52 6
-73 -6 -14 -16 -22 -21 -19 -6 3 -10 1 -10 -4 0 -6 8 -11 18 -11 9 0 26 -7 36
-15 26 -19 34 -19 38 3 3 9 8 -20 12 -65 6 -61 12 -83 22 -83 10 0 14 12 14
39 0 30 4 40 20 44 30 8 34 5 34 -23 1 -23 5 -25 46 -27 44 -3 125 13 145 28
6 4 36 10 68 14 38 5 61 13 64 22 3 9 29 26 57 40 49 23 89 46 153 88 25 17
28 23 19 37 -8 14 -7 22 6 35 10 9 19 15 22 12 2 -2 -2 -56 -9 -119 -8 -63
-14 -132 -15 -152 l0 -38 519 0 c340 0 520 3 523 10 2 7 14 6 35 -2 36 -14 52
-6 33 17 -14 17 -6 50 10 40 5 -3 10 -19 10 -36 l0 -29 83 0 82 0 11 36 c15
46 8 72 -19 76 -41 6 -112 241 -79 262 10 6 25 -22 21 -40 -1 -5 -1 -18 0 -29
2 -18 3 -17 12 5 6 14 8 34 5 44 -3 11 2 29 12 40 9 11 12 16 5 13 -16 -10
-28 12 -14 26 18 18 13 37 -11 38 -16 1 -18 3 -6 6 13 3 15 12 11 41 -3 20
-12 49 -19 63 -7 14 -13 44 -14 65 -2 154 1 215 10 238 15 42 67 85 186 156
60 35 157 95 216 131 59 37 127 78 150 91 24 13 45 26 48 29 15 17 361 178
395 183 22 4 48 9 58 12 9 3 97 9 195 14 166 8 220 16 382 54 147 34 404 88
530 111 41 7 109 21 150 30 41 9 111 25 155 35 128 28 323 79 410 105 44 14
85 25 91 25 21 0 409 131 446 151 12 6 25 6 38 -1 15 -8 23 -7 37 7 38 37 100
67 214 103 24 7 60 22 124 51 11 5 56 20 100 33 131 40 434 155 500 190 17 9
34 16 39 16 12 0 248 113 396 189 69 35 152 78 185 94 60 31 122 39 161 22 48
-21 110 -33 126 -24 27 15 22 32 -7 25 -17 -4 -31 0 -45 14 -22 22 -18 46 8
53 25 6 110 -8 162 -28 60 -23 128 -16 180 19 22 14 45 26 51 26 6 0 24 11 41
25 16 14 35 25 43 25 7 0 15 7 19 15 3 9 0 15 -9 15 -8 0 -15 6 -15 13 1 17
25 47 39 47 6 0 11 5 11 11 0 7 15 9 43 4 39 -5 41 -5 23 10 -11 8 -23 15 -28
15 -18 0 -6 18 19 29 19 9 81 12 206 10 148 -2 181 0 193 13 14 14 11 16 -28
22 -42 7 -42 8 -19 20 l23 13 -23 6 c-21 6 -22 8 -8 19 9 7 19 20 22 28 3 10
8 6 16 -13 6 -16 9 -33 5 -38 -3 -5 2 -9 10 -9 24 0 24 42 0 72 -12 15 -30 49
-40 75 -21 57 -63 133 -73 133 -4 0 -32 24 -63 53 -30 28 -71 65 -91 82 -42
34 -52 77 -16 68 11 -3 33 -19 49 -34 16 -16 33 -29 39 -29 6 0 30 -25 53 -55
35 -44 44 -51 52 -38 6 11 3 25 -8 43 -9 16 -16 35 -16 44 0 8 -6 19 -13 23
-7 4 -29 31 -47 58 -19 28 -37 51 -42 53 -4 2 -8 10 -8 17 0 8 -9 16 -19 20
-13 4 -17 12 -14 25 6 22 -3 25 -27 10 -10 -6 -20 -4 -32 7 -24 21 -23 37 2
30 26 -7 26 13 0 43 -11 13 -20 27 -20 32 0 4 -5 8 -10 8 -23 0 -38 24 -26 42
8 13 8 23 -2 38 -6 11 -12 40 -12 64 0 30 -5 48 -16 54 -14 8 -14 10 0 21 17
15 36 7 36 -15 0 -8 8 -23 18 -33 22 -24 82 -17 89 10 6 23 30 31 54 18 21
-11 27 -8 72 33 11 9 16 21 12 27 -3 6 6 16 22 22 15 6 46 19 68 30 22 10 59
19 83 19 32 0 42 4 42 16 0 14 -3 14 -15 4 -13 -11 -18 -10 -29 5 -12 17 -13
17 -20 0 -6 -17 -7 -17 -20 0 -8 11 -28 19 -52 20 -49 3 -53 17 -10 40 31 17
35 17 50 2 9 -8 16 -21 16 -27 0 -8 10 -9 31 -5 56 12 63 13 107 14 50 1 53
10 11 34 -25 14 -30 22 -27 42 5 23 2 25 -28 25 -18 0 -39 -6 -46 -14 -8 -7
-26 -14 -40 -14 -14 1 -55 -11 -91 -26 -36 -14 -76 -26 -89 -26 -13 0 -44 -11
-70 -25 -26 -14 -53 -25 -61 -25 -8 0 -35 -11 -61 -25 -26 -14 -56 -25 -66
-25 -10 0 -22 -9 -25 -20 -4 -12 -15 -20 -28 -20 -17 0 -19 2 -8 9 12 8 9 11
-11 16 -15 4 -25 12 -22 18 8 22 -50 39 -149 44 -97 6 -98 6 -137 44 -30 29
-49 39 -73 39 -30 1 -31 2 -13 15 17 13 17 15 -6 40 l-24 25 -22 -20 c-11 -11
-33 -20 -47 -20 -25 0 -34 -14 -15 -25 6 -4 8 -11 5 -16 -8 -12 -72 -12 -80 1
-3 6 -15 10 -25 10 -23 0 -16 28 11 48 24 17 50 70 38 78 -6 3 -36 4 -67 3
-31 -2 -62 0 -69 4 -6 4 -14 30 -18 58 -8 55 -5 51 -153 204 -121 124 -185
201 -192 229 -8 33 -66 140 -95 174 -14 17 -56 46 -93 64 -92 45 -214 150
-384 330 -79 84 -204 215 -278 292 -74 77 -180 188 -235 245 -55 58 -122 127
-149 155 -26 27 -57 69 -67 93 -10 24 -33 65 -51 91 -34 51 -206 259 -275 332
-23 25 -60 65 -83 89 -44 47 -90 128 -90 160 0 11 -11 46 -24 78 -14 32 -27
69 -30 83 -3 14 -28 54 -55 90 -50 67 -56 71 -188 125 -24 10 -43 22 -43 27 0
4 21 8 48 9 26 1 63 3 82 5 83 8 525 20 635 18 66 -2 194 -8 285 -14 91 -6
248 -15 350 -20 102 -5 230 -14 285 -20 110 -11 210 -19 238 -20 10 0 16 -3
14 -7 -3 -5 16 -7 41 -5 26 1 88 -3 137 -11 98 -15 93 -9 79 -84 -4 -22 -3
-33 5 -33 6 0 12 10 12 23 1 12 3 35 5 52 2 16 -2 35 -7 41 -6 7 -9 25 -8 41
5 70 -1 133 -14 133 -9 0 -12 10 -9 31 3 21 -1 34 -14 45 -17 12 -17 13 -1 8
12 -4 17 -1 17 11 0 11 -5 15 -15 11 -20 -7 -49 59 -35 83 8 14 9 13 10 -6 0
-13 5 -23 10 -23 12 0 3 69 -11 84 -5 6 -9 20 -9 31 0 12 -9 32 -20 45 -11 13
-20 36 -20 52 0 15 -4 28 -8 28 -4 0 -8 10 -10 23 -2 30 -29 94 -42 102 -5 3
-10 15 -10 25 0 11 -10 30 -22 44 -54 60 -78 95 -78 116 0 25 -36 90 -50 90
-5 0 -11 8 -13 18 -4 16 -5 16 -6 0 0 -10 -6 -18 -12 -18 -7 0 -9 12 -5 34 5
27 0 45 -24 86 -16 28 -30 55 -30 60 0 6 -4 10 -9 10 -6 0 -9 18 -9 40 0 22
-6 50 -14 62 -8 13 -20 42 -26 65 -7 25 -19 43 -27 43 -8 0 -26 12 -41 27 -17
16 -29 23 -31 16 -3 -7 -11 -9 -20 -6 -12 5 -14 1 -8 -18 4 -13 16 -39 26 -57
10 -18 19 -37 19 -43 0 -18 62 -139 71 -139 5 0 9 -7 9 -15 0 -8 13 -41 29
-72 16 -32 43 -89 61 -128 18 -38 36 -77 40 -86 4 -8 15 -44 24 -78 21 -81 21
-155 0 -175 -8 -9 -12 -21 -9 -27 4 -6 -9 -25 -29 -44 -36 -32 -36 -33 -36
-114 0 -47 -4 -81 -10 -81 -5 0 -10 -9 -10 -19 0 -11 -9 -22 -19 -26 -11 -3
-22 -12 -25 -20 -4 -10 -20 -15 -51 -15 -25 0 -45 -4 -45 -10 0 -5 -5 -10 -11
-10 -6 0 -9 6 -6 13 3 9 -7 11 -39 8 -29 -2 -44 -8 -44 -17 0 -7 -18 -19 -40
-25 -28 -9 -40 -18 -40 -31 0 -14 -8 -18 -34 -18 -42 0 -89 17 -82 29 3 4 -2
15 -12 23 -19 16 -102 13 -102 -4 0 -5 -5 -6 -10 -3 -6 4 -8 11 -5 16 4 5 -27
10 -72 11 -43 1 -61 3 -40 5 20 2 37 8 37 12 0 8 -60 8 -75 0 -5 -3 -45 -5
-87 -4 -43 0 -78 -3 -78 -7 0 -4 -36 -8 -80 -8 -73 0 -80 2 -80 20 0 18 -7 20
-80 20 -47 0 -80 -4 -80 -10 0 -5 -18 -10 -40 -10 -22 0 -40 5 -40 10 0 6 -18
10 -40 10 -22 0 -40 -4 -40 -10 0 -5 -18 -10 -40 -10 -32 0 -40 4 -40 19 0 15
-11 19 -61 25 -89 9 -99 8 -99 -10 0 -12 -5 -14 -17 -9 -10 4 -28 10 -39 12
-29 6 -40 80 -28 170 6 39 4 41 -15 36 -12 -3 -21 -13 -21 -22 0 -9 -20 -38
-45 -66 -24 -27 -45 -54 -45 -58 0 -18 -64 -97 -78 -97 -8 0 -12 -6 -8 -15 3
-9 -3 -19 -15 -25 -15 -9 -20 -7 -25 7 -3 10 -12 34 -20 53 -8 19 -17 48 -20
63 -2 16 -12 48 -20 70 -38 106 -87 286 -87 327 -1 25 6 56 15 70 9 14 19 38
23 55 3 16 10 32 14 35 9 7 61 124 61 138 0 6 8 26 18 44 10 18 26 56 36 83
10 28 25 64 32 80 15 32 59 150 76 202 10 29 7 38 -31 102 -88 149 -240 314
-476 518 -94 80 -135 123 -135 138 0 8 -7 15 -15 15 -8 0 -15 5 -15 10 0 6 -9
10 -19 10 -11 0 -31 14 -45 30 -32 38 -107 76 -169 85 -27 4 -51 14 -54 21 -9
23 16 71 44 83 22 10 24 16 21 54 -3 23 -17 89 -32 146 -30 110 -26 141 12
101 12 -13 29 -20 44 -18 20 3 23 8 20 38 -2 19 -7 40 -10 47 -4 6 -5 46 -2
89 5 78 5 78 45 106 48 34 103 34 175 0 37 -18 47 -29 58 -63 7 -22 10 -44 7
-50 -4 -5 3 -9 13 -9 23 0 36 38 21 56 -22 27 -93 352 -105 481 l-7 70 32 6
c40 8 41 39 5 93 -33 49 -47 91 -31 97 9 3 7 14 -6 37 -16 30 -16 34 -1 66 20
43 14 77 -26 142 -37 60 -38 80 -5 88 40 10 55 -1 55 -42 0 -20 9 -48 20 -63
10 -16 24 -50 30 -76 6 -27 24 -68 40 -92 17 -24 30 -48 30 -54 0 -5 5 -9 10
-9 6 0 10 8 10 17 0 26 -20 134 -32 173 -6 19 -10 90 -9 158 2 111 0 126 -20
158 -16 27 -20 43 -14 70 4 26 2 41 -10 54 -9 9 -21 45 -27 79 l-11 61 33 41
c30 38 32 45 22 72 -6 16 -10 33 -8 36 2 3 43 5 90 3 l86 -3 32 -45 c17 -24
35 -44 40 -44 23 0 0 54 -67 157 -41 62 -75 118 -75 123 0 5 16 16 35 24 19 8
35 21 35 28 0 15 -53 38 -85 38 -10 0 -28 8 -39 18 -12 10 -66 38 -121 63 -55
24 -115 52 -133 61 -18 10 -39 18 -47 18 -8 0 -15 5 -15 10 0 6 -6 10 -14 10
-7 0 -44 15 -82 34 -38 19 -118 51 -179 73 -104 36 -116 38 -231 38 -119 0
-122 -1 -173 -32 -29 -18 -56 -33 -61 -33 -5 0 -12 -10 -15 -22 -4 -11 -18
-31 -32 -44 -22 -20 -24 -28 -18 -68 5 -29 12 -46 21 -46 8 0 14 5 14 11 0 5
4 8 9 5 4 -3 6 -36 3 -74 -4 -65 -3 -70 22 -89 14 -11 30 -33 36 -47 14 -37
13 -99 -2 -114 -18 -18 -82 -15 -116 5 -46 27 -83 10 -99 -46 -16 -56 -29 -71
-64 -71 -41 0 -79 17 -101 45 -18 24 -48 34 -48 18 -1 -5 -15 -25 -33 -46
l-33 -38 -32 17 c-28 14 -38 14 -64 3 -19 -8 -33 -9 -35 -3 -2 5 -18 32 -36
59 -28 43 -37 50 -62 47 -26 -2 -33 3 -53 41 -35 66 -57 80 -189 118 -26 7
-49 22 -59 38 -9 14 -26 34 -38 43 -23 19 -76 24 -76 8 0 -5 -6 -10 -14 -10
-10 0 -15 28 -20 112 -4 62 -12 118 -17 124 -10 13 24 44 47 44 31 0 151 94
219 171 64 72 93 159 52 159 -13 0 -78 -81 -89 -111 -5 -12 -14 -15 -32 -12
-30 6 -30 7 -15 35 6 11 8 22 6 25 -8 8 -65 -26 -80 -48 -13 -18 -18 -19 -37
-7 -20 12 -25 9 -64 -34 -23 -27 -47 -48 -54 -48 -8 0 -12 20 -12 61 0 33 -4
58 -8 55 -5 -3 -24 -35 -42 -71 -19 -37 -43 -73 -54 -81 -18 -12 -22 -11 -47
19 -57 67 -87 148 -94 258 -3 44 1 65 20 104 15 29 25 66 25 92 0 43 32 127
54 140 6 4 18 8 26 8 11 0 17 16 21 55 17 140 95 339 190 483 22 32 39 61 39
64 0 5 105 128 171 200 16 17 73 64 127 104 93 69 253 206 260 222 9 19 55 3
109 -38 33 -24 72 -49 86 -54 41 -16 326 -54 389 -52 43 1 81 -7 150 -32 51
-18 134 -46 183 -61 239 -75 385 -141 543 -245 147 -97 234 -182 397 -386 153
-191 235 -273 355 -354 151 -102 182 -120 320 -185 80 -38 199 -96 265 -128
124 -62 163 -71 204 -49 37 21 171 39 210 29 19 -5 64 -37 102 -71 63 -56 69
-65 75 -110 6 -43 12 -53 54 -85 27 -21 50 -44 53 -54 6 -20 79 -42 192 -58
44 -6 123 -22 175 -35 52 -13 120 -29 150 -35 30 -7 93 -25 140 -42 47 -16
122 -43 167 -59 46 -16 116 -46 155 -67 40 -22 98 -48 128 -60 30 -11 79 -32
108 -47 57 -29 147 -60 203 -70 24 -4 54 0 94 14 43 15 84 21 149 21 158 0
253 44 218 101 -19 30 -14 58 16 88 21 21 47 32 117 46 50 10 95 22 101 27 7
5 52 8 100 7 62 -1 113 4 169 18 44 12 112 24 150 27 115 11 133 16 174 56 27
27 54 41 92 50 30 7 77 23 104 36 44 20 56 22 90 13 41 -11 129 -5 180 13 30
10 31 11 29 77 -1 36 -5 76 -10 89 -10 23 -2 161 11 201 6 19 13 21 88 20 135
-1 169 -9 192 -46 22 -35 43 -40 93 -22 l32 11 0 2063 0 2063 -38 13 c-20 6
-40 16 -44 22 -3 6 -17 -12 -31 -39 -26 -53 -32 -110 -43 -439 -2 -82 -7 -177
-9 -210 -2 -33 -9 -118 -14 -190 -5 -71 -14 -240 -21 -375 -18 -406 -52 -859
-67 -883 -3 -6 -6 -57 -5 -114 1 -58 -3 -137 -9 -176 -11 -67 -16 -168 -21
-359 -1 -65 -4 -79 -20 -84 -10 -3 -28 2 -40 10 -36 26 -72 20 -102 -16 -25
-31 -27 -37 -20 -98 10 -80 8 -124 -6 -128 -13 -5 -13 -27 2 -55 27 -53 28
-57 16 -79 -7 -12 -19 -28 -25 -36 -21 -22 -19 -59 5 -111 10 -21 12 -38 6
-46 -47 -63 -46 -61 -30 -100 19 -44 20 -87 5 -130 -9 -24 -8 -44 3 -88 22
-89 14 -118 -47 -182 -31 -33 -55 -68 -59 -87 -3 -18 -15 -41 -25 -53 -10 -11
-25 -42 -34 -68 -9 -26 -30 -68 -47 -94 -17 -25 -33 -62 -34 -81 -2 -20 -8
-37 -12 -39 -18 -5 -36 15 -36 41 0 18 -10 33 -29 47 -38 27 -37 46 7 111 33
49 35 57 29 108 -3 30 -8 64 -11 75 -5 22 4 27 92 50 11 3 33 19 49 35 22 23
29 41 33 85 2 30 8 55 13 55 5 0 13 9 19 21 9 17 7 31 -9 69 -27 63 -26 83 4
116 14 15 25 34 25 42 0 8 -11 30 -25 48 -14 18 -25 40 -25 48 0 9 11 23 25
32 31 20 32 55 6 114 -19 43 -19 43 2 86 20 42 20 45 4 97 -22 69 -21 80 3
102 11 10 20 29 20 42 0 13 -9 41 -20 63 -24 47 -25 62 -4 102 15 28 15 34 -2
69 -14 33 -15 45 -6 78 7 21 19 44 27 51 20 16 19 49 -1 71 -25 28 -23 90 4
119 28 30 28 41 -3 91 -32 50 -66 67 -106 52 -16 -6 -29 -7 -29 -2 0 5 -6 9
-14 9 -26 0 -26 31 0 78 l26 46 -21 39 c-28 51 -26 79 5 110 22 22 25 31 19
59 -4 18 -11 35 -14 38 -4 3 -17 20 -30 37 l-22 33 40 42 c39 42 39 42 60 24
12 -11 21 -25 21 -31 0 -7 7 -16 16 -19 20 -8 54 2 54 15 0 5 9 9 19 9 21 0
61 44 61 66 0 28 26 12 45 -27 32 -68 81 -88 123 -50 56 48 -4 107 -114 112
-47 3 -65 9 -90 30 -22 18 -29 30 -23 41 21 38 27 99 13 146 -18 59 -10 99 27
134 16 15 29 31 29 37 0 5 -26 26 -57 45 -57 36 -87 39 -105 12 -10 -15 -7
-76 5 -101 15 -29 10 -77 -7 -87 -17 -10 -22 -73 -7 -82 11 -7 21 -97 15 -124
-8 -30 -74 -39 -96 -12 -9 11 -25 20 -36 20 -11 0 -23 6 -25 13 -3 7 -6 4 -6
-7 -1 -17 -8 -18 -98 -12 -139 8 -153 8 -153 -6 0 -4 -5 -8 -11 -8 -5 0 -7 5
-4 10 3 6 -5 10 -19 10 -14 0 -29 8 -35 18 -9 16 -10 16 -16 0 -4 -10 -14 -18
-22 -18 -9 0 -13 -6 -9 -15 5 -15 -26 -40 -37 -29 -3 3 -14 -1 -26 -8 -19 -11
-24 -10 -46 15 -31 33 -36 33 -62 5 -31 -35 -36 -58 -17 -79 23 -26 48 -24 78
6 14 14 29 25 33 25 9 0 43 -36 43 -46 0 -3 10 -15 23 -28 20 -20 36 -24 137
-29 158 -9 240 -18 240 -28 0 -11 -36 -19 -80 -18 -19 0 -84 -3 -144 -7 -84
-5 -110 -4 -116 6 -6 10 -12 10 -26 -4 -9 -10 -28 -22 -41 -27 -19 -7 -23 -14
-19 -42 2 -19 16 -46 30 -60 27 -28 26 -45 -9 -118 -16 -33 -16 -39 -2 -81 18
-51 13 -83 -15 -115 -25 -27 -17 -72 18 -110 31 -33 32 -63 2 -64 -13 0 -35
-3 -50 -5 -16 -3 -28 0 -28 6 0 5 -7 10 -15 10 -8 0 -19 9 -25 20 -6 11 -7 20
-3 20 10 0 39 74 47 119 5 27 1 40 -14 56 -20 21 -20 23 -3 69 19 50 14 69
-21 90 -14 8 -20 8 -23 -1 -3 -7 -13 -13 -24 -13 -28 0 -27 -66 2 -91 17 -14
19 -24 14 -51 -4 -18 -16 -41 -26 -51 -26 -24 -24 -57 6 -89 14 -15 25 -31 25
-35 0 -4 -14 -26 -30 -47 -35 -47 -37 -63 -10 -113 26 -48 25 -56 -5 -101 -31
-45 -31 -56 -3 -109 l22 -41 -27 -39 c-34 -49 -38 -113 -7 -113 17 0 20 -7 20
-39 0 -24 -8 -48 -21 -65 -15 -19 -19 -34 -14 -56 4 -17 11 -30 16 -30 7 0 39
-51 39 -63 0 -2 -18 -10 -40 -17 -37 -12 -40 -16 -40 -50 0 -39 20 -65 55 -72
24 -4 35 -48 12 -48 -8 0 -27 -19 -42 -42 -23 -34 -25 -43 -14 -52 8 -6 19
-20 25 -31 16 -29 31 -29 60 0 21 21 25 32 19 53 -4 15 -9 48 -12 73 -4 39 -1
50 20 75 l25 29 21 -25 c11 -14 20 -30 21 -37 0 -18 18 -26 74 -30 73 -6 81
-20 13 -25 -20 -1 -37 -6 -37 -10 0 -4 -6 -8 -12 -8 -7 0 -26 -12 -41 -25 -31
-28 -33 -58 -5 -88 23 -26 21 -84 -4 -101 -26 -19 -26 -61 -1 -89 29 -32 34
-54 17 -72 -25 -24 -68 -19 -84 10 -7 14 -17 25 -21 25 -5 0 1 16 12 35 11 19
21 54 22 78 2 37 -3 49 -23 66 -32 26 -51 23 -68 -12 -7 -15 -17 -27 -23 -27
-12 0 -12 -77 1 -85 17 -10 11 -58 -10 -85 -30 -38 -25 -74 15 -113 25 -24 31
-37 24 -44 -8 -8 -3 -16 19 -27 39 -20 52 -20 52 -1 0 8 -5 15 -11 15 -16 0
-41 29 -34 40 3 5 11 10 16 10 6 0 19 10 30 23 l19 22 6 -23 c4 -13 12 -21 19
-18 8 3 11 -2 8 -14 -3 -12 2 -20 16 -25 25 -8 26 -18 6 -39 -8 -8 -15 -21
-15 -30 0 -20 72 -62 140 -82 102 -31 133 -69 88 -111 -13 -11 -28 -29 -35
-39 -11 -17 -14 -17 -25 -4 -7 8 -20 16 -28 18 -8 2 -22 10 -30 17 -19 17
-110 2 -123 -20 -4 -8 -21 -22 -37 -30 -17 -9 -30 -22 -30 -30 0 -8 -6 -15
-14 -15 -7 0 -16 -10 -19 -22 -3 -13 -8 -33 -12 -44 -6 -19 -2 -22 32 -29 45
-8 63 -21 63 -45 0 -10 6 -21 13 -23 6 -3 3 -6 -9 -6 -11 -1 -28 5 -38 12 -14
10 -29 11 -62 4 -36 -8 -47 -7 -61 5 -10 9 -34 23 -53 31 -19 8 -58 37 -86 64
-55 53 -108 83 -145 83 -23 0 -98 -73 -99 -96 0 -6 -7 -25 -16 -42 -13 -27
-21 -32 -50 -32 -44 0 -74 29 -74 73 -1 34 -20 67 -39 67 -6 0 -21 21 -32 47
-17 39 -19 59 -13 128 5 69 4 84 -11 98 -14 15 -15 22 -6 45 6 15 12 90 14
168 2 122 0 143 -15 158 -20 19 -20 26 -9 103 5 33 4 54 -3 56 -6 2 -6 34 1
93 7 53 8 90 2 92 -11 5 -12 52 0 52 4 0 11 27 14 61 6 56 5 62 -18 84 l-26
23 22 46 c22 44 22 46 4 79 -16 30 -17 41 -7 93 8 41 9 70 2 94 -6 20 -7 63
-3 100 4 36 7 67 6 70 -9 37 -10 106 -2 127 7 19 7 46 0 89 -9 49 -8 69 4 103
13 38 13 46 -2 74 -14 27 -14 40 -4 93 10 47 10 67 1 84 -12 22 -4 130 10 140
4 3 10 15 14 26 5 17 3 22 -11 20 -16 -1 -18 8 -17 69 0 51 5 78 19 99 18 28
18 28 -2 45 -23 18 -26 46 -24 256 2 190 2 219 -1 272 -1 30 3 57 11 67 7 8
10 19 7 24 -3 5 -6 32 -7 59 -2 54 20 97 54 106 24 7 21 27 -11 64 -50 56 -66
105 -55 163 8 39 7 61 -4 92 -11 32 -11 43 -1 55 9 11 9 16 -1 23 -11 6 -11
12 3 31 20 29 20 56 1 93 -20 37 -19 77 2 121 16 33 16 37 0 70 -21 45 -22
118 -2 135 20 17 19 43 -5 92 -11 23 -20 51 -20 63 0 12 9 30 20 40 11 10 20
26 20 35 0 21 -50 65 -71 62 -9 -2 -22 4 -29 13 -7 8 -18 15 -25 15 -7 0 -18
7 -25 15 -8 9 -30 15 -60 15 -46 0 -47 -1 -58 -37 -10 -36 -16 -162 -14 -298
0 -33 -6 -170 -13 -305 -15 -256 -25 -453 -31 -580 -2 -41 -3 -84 -4 -95 -1
-11 2 -60 6 -109 5 -58 3 -90 -4 -95 -7 -4 -7 -23 0 -61 12 -69 5 -118 -22
-137 -12 -9 -20 -25 -19 -41 0 -15 3 -21 6 -14 2 6 11 12 19 12 11 0 14 -17
14 -75 0 -69 -9 -91 -25 -64 -4 6 -13 8 -21 5 -29 -11 -43 79 -16 106 19 19
14 66 -14 113 l-25 44 22 22 c32 32 42 94 18 115 -11 10 -19 23 -19 30 0 25
-18 24 -48 -4 -16 -15 -32 -38 -36 -50 -10 -30 2 -82 19 -82 8 0 18 -8 24 -17
7 -14 3 -23 -20 -44 -43 -38 -48 -84 -15 -132 33 -49 33 -61 -5 -95 l-31 -28
17 -51 c16 -47 16 -56 1 -105 -14 -50 -14 -55 4 -90 18 -35 18 -40 4 -75 -11
-26 -14 -50 -9 -78 11 -63 7 -97 -15 -127 -21 -28 -21 -28 -1 -55 17 -24 26
-62 22 -99 -1 -5 -11 -20 -22 -33 -21 -23 -21 -23 -2 -49 11 -15 22 -38 26
-51 6 -23 -10 -71 -24 -71 -17 0 -18 -35 -1 -54 26 -30 27 -71 3 -112 -25 -41
-27 -70 -6 -78 19 -7 19 -57 0 -110 -12 -34 -12 -43 1 -67 18 -36 18 -83 -1
-99 -19 -16 -19 -34 0 -89 15 -43 13 -81 -6 -81 -5 0 -9 -7 -9 -15 0 -23 -16
-18 -44 16 -31 37 -32 48 -5 100 l20 41 -27 35 c-26 35 -27 37 -11 67 22 41
32 111 18 120 -15 10 -13 56 4 86 19 34 19 42 -6 69 -23 25 -23 70 2 129 10
23 11 35 3 40 -6 4 -17 23 -24 44 -13 34 -12 38 13 68 28 33 34 50 17 50 -5 0
-10 11 -10 24 0 13 -7 29 -15 36 -20 17 -19 24 10 70 l25 40 -25 40 c-18 29
-23 45 -17 58 5 9 12 38 16 63 5 36 3 50 -9 62 -22 22 -19 73 6 98 21 21 20
37 -7 93 -18 38 -18 64 1 82 20 21 19 56 -4 85 -33 43 -35 66 -7 102 32 42 33
61 1 99 -35 41 -32 69 11 111 l37 36 -18 37 c-16 34 -17 46 -6 116 9 58 9 88
1 119 -9 31 -8 53 1 91 8 31 10 52 3 56 -5 4 -21 24 -37 44 -27 36 -28 68 -1
68 16 0 44 39 44 62 0 9 -16 33 -35 52 -19 20 -35 42 -35 50 0 23 11 46 22 46
15 0 37 32 38 53 0 20 -57 77 -76 77 -7 0 -26 -11 -43 -25 l-30 -26 -11 22
c-7 11 -10 30 -7 40 3 11 0 19 -8 19 -7 0 -15 7 -19 15 -6 17 9 65 21 65 5 0
14 9 20 19 10 15 8 26 -7 57 -32 62 -35 99 -12 129 19 24 20 28 6 61 -8 20
-13 41 -11 47 2 6 -6 19 -17 28 -19 16 -19 16 12 47 18 17 32 35 32 38 0 20
-25 74 -37 78 -7 3 -94 6 -193 6 -211 2 -230 -4 -230 -69 0 -30 5 -40 25 -51
28 -15 32 -28 10 -36 -8 -4 -15 -17 -15 -31 0 -14 -9 -36 -20 -50 -11 -14 -20
-29 -20 -32 0 -4 16 -24 36 -45 l35 -37 -25 -26 c-14 -14 -26 -30 -26 -36 0
-5 -7 -15 -17 -22 -13 -9 -22 -9 -44 2 -33 17 -74 8 -93 -19 -19 -26 -11 -45
26 -64 28 -15 31 -14 45 5 19 28 43 26 78 -6 25 -23 29 -34 27 -67 -4 -44 -36
-78 -64 -70 -13 4 -18 0 -18 -17 0 -18 2 -19 15 -9 13 10 19 8 36 -14 11 -14
27 -33 35 -41 9 -8 11 -15 5 -15 -6 0 -11 -8 -11 -18 0 -25 -62 -47 -89 -33
-30 16 -39 14 -71 -19 -37 -38 -38 -54 -1 -91 33 -33 48 -36 77 -14 27 20 43
18 65 -7 13 -17 17 -32 13 -53 -13 -64 -51 -74 -83 -20 -23 39 -37 44 -46 16
-3 -11 -17 -26 -30 -35 -29 -19 -32 -48 -9 -101 14 -35 14 -41 -2 -76 -17 -39
-16 -69 7 -124 15 -38 12 -76 -9 -91 -11 -8 -14 -21 -9 -48 10 -59 23 -69 84
-63 52 5 53 5 53 -22 0 -38 -17 -52 -45 -39 -19 9 -29 6 -59 -17 -20 -15 -36
-35 -36 -44 0 -35 13 -61 30 -61 10 0 23 -6 29 -14 11 -14 51 -11 51 3 0 11
44 7 52 -4 4 -5 8 -18 8 -28 0 -16 -7 -18 -51 -16 -43 3 -54 -1 -80 -25 -52
-49 -51 -99 2 -129 l32 -18 -36 -27 c-39 -29 -53 -52 -39 -61 5 -3 13 -30 17
-59 5 -41 3 -61 -10 -89 -16 -34 -16 -41 -3 -77 9 -25 12 -51 7 -66 -14 -50
-10 -107 11 -133 24 -30 24 -32 8 -49 -7 -7 -20 -29 -29 -48 -16 -35 -16 -36
9 -59 24 -22 25 -25 13 -64 -23 -77 -24 -96 -6 -123 9 -15 13 -29 8 -33 -14
-10 -19 -140 -6 -150 27 -20 -18 -109 -49 -99 -7 3 -18 26 -24 52 -10 39 -10
54 2 82 8 20 10 34 4 34 -5 0 -10 9 -10 20 0 10 -5 31 -12 45 -11 24 -9 28 17
49 23 18 27 28 21 49 -3 15 -14 34 -24 44 -23 23 -27 76 -7 93 19 16 19 41 -1
77 -18 30 -13 103 6 103 15 0 12 44 -5 76 -19 37 -19 65 0 111 8 19 15 43 15
53 0 10 -7 23 -15 30 -19 16 -19 60 0 86 18 24 18 64 0 88 -19 26 -19 47 2 90
15 33 15 37 1 53 -30 33 -36 84 -17 129 15 37 16 47 4 80 -7 21 -22 46 -34 55
-27 22 -27 37 4 61 47 37 50 54 15 109 -18 27 -38 49 -44 49 -14 0 -96 -86
-96 -100 0 -6 5 -10 10 -10 6 0 10 -5 10 -10 0 -6 15 -24 33 -40 l32 -30 -32
-28 c-29 -25 -33 -34 -33 -80 0 -30 4 -52 11 -52 6 0 17 -6 25 -14 7 -8 19
-17 26 -20 10 -5 10 -7 -1 -12 -24 -11 -58 -53 -64 -77 -2 -12 -8 -30 -12 -39
-5 -13 0 -21 18 -29 14 -6 28 -18 31 -25 7 -19 -3 -44 -18 -44 -6 0 -20 -13
-29 -30 -16 -26 -16 -30 -3 -30 13 0 16 -13 17 -57 2 -75 -1 -97 -12 -101 -4
-2 -4 -12 1 -23 6 -10 14 -27 19 -37 11 -23 -3 -59 -27 -66 -26 -9 -34 -42
-16 -61 13 -13 13 -17 -5 -37 -12 -12 -21 -24 -21 -27 1 -12 26 -37 43 -44 21
-8 23 -27 2 -27 -11 0 -15 -11 -15 -40 0 -29 4 -40 15 -40 10 0 15 -10 15 -32
0 -25 3 -29 12 -20 16 16 28 15 28 -1 0 -13 -56 -67 -70 -67 -5 0 -11 -24 -14
-52 -12 -111 -18 -148 -27 -148 -5 0 -9 -54 -9 -120 0 -66 -4 -120 -8 -120
-12 0 -32 -183 -32 -297 0 -94 -2 -103 -19 -103 -10 0 -22 8 -25 18 -3 9 -13
28 -21 42 -8 14 -15 44 -15 67 0 30 -6 46 -19 55 -18 13 -20 32 -25 248 -12
510 -17 583 -40 607 -12 13 -29 23 -38 23 -9 0 -20 5 -23 10 -3 6 -15 10 -25
10 -20 0 -44 32 -33 43 3 4 15 0 27 -8 27 -19 56 -19 56 0 0 8 4 15 10 15 5 0
17 11 26 26 15 22 17 54 15 241 -1 120 -5 222 -9 227 -3 6 -7 117 -8 246 -3
243 -14 410 -33 469 -5 18 -8 53 -4 76 3 26 1 45 -6 49 -13 8 -15 96 -2 96 12
0 24 65 22 115 -1 22 -7 159 -13 305 -10 234 -13 378 -8 475 1 26 2 87 2 160
0 11 -5 40 -12 65 -6 25 -15 79 -19 120 -4 41 -13 87 -19 101 -14 35 -10 142
6 162 7 8 32 17 55 20 136 16 200 48 145 72 -41 18 -28 40 27 45 47 5 52 3 87
-32 20 -21 47 -39 60 -42 50 -10 77 -13 73 -7 -2 4 -1 12 3 18 9 14 135 24
153 12 7 -4 18 -4 24 0 5 5 33 13 60 19 94 20 149 22 205 8 30 -8 63 -12 74
-10 12 3 60 8 108 13 87 8 118 21 118 47 0 10 14 14 48 14 43 0 50 -3 60 -25
7 -14 12 -31 12 -36 0 -6 7 -17 15 -26 13 -13 43 -15 168 -14 88 1 153 6 155
11 6 17 40 11 46 -7 8 -24 66 -62 97 -65 21 -2 25 -6 21 -28 -3 -14 -11 -29
-18 -33 -8 -4 -14 -19 -14 -32 0 -19 10 -29 42 -45 23 -11 52 -20 64 -20 40 0
41 -63 2 -106 -19 -21 -19 -21 13 -28 43 -8 51 0 47 47 -2 33 2 43 23 59 23
18 31 18 94 7 48 -8 76 -19 92 -35 37 -37 57 -44 132 -44 38 0 82 -5 97 -12
34 -16 69 -91 54 -118 -32 -60 8 -83 98 -55 31 10 74 20 94 22 45 6 52 23 43
103 -10 85 5 124 54 139 44 13 431 7 546 -9 39 -5 99 -9 135 -9 40 0 80 -6
105 -16 22 -10 63 -19 90 -22 169 -14 238 -23 267 -36 18 -8 52 -22 76 -32 37
-16 58 -45 32 -45 -17 0 -120 -52 -120 -61 0 -17 44 -31 116 -38 l74 -7 0 948
0 948 -245 0 -245 0 -1 -67z m-7090 -843 c-2 -3 6 -15 16 -27 16 -19 30 -23
72 -23 29 0 53 -4 53 -9 0 -5 17 -13 38 -18 34 -8 37 -12 39 -45 1 -21 -4 -41
-12 -48 -22 -18 -131 -15 -150 4 -9 9 -22 16 -29 16 -8 0 -19 6 -26 14 -6 8
-18 12 -25 10 -14 -6 -39 29 -28 40 3 3 1 6 -6 6 -8 0 -11 13 -9 37 2 30 8 39
28 44 26 7 43 7 39 -1z m6113 -181 c24 -22 55 -43 71 -46 27 -5 35 -17 19 -27
-15 -9 -1 -65 22 -86 11 -11 33 -31 49 -44 15 -14 27 -29 27 -33 0 -23 239
-68 288 -54 73 21 210 -7 227 -47 5 -12 18 -25 27 -28 13 -4 18 -16 18 -44 0
-22 5 -40 13 -43 6 -2 8 -8 4 -13 -4 -5 -12 -3 -16 4 -4 8 -15 10 -26 6 -12
-5 -23 -1 -32 12 -10 14 -16 16 -21 6 -6 -9 -13 -8 -28 6 -37 35 -52 38 -131
30 -42 -5 -79 -12 -83 -16 -9 -12 -151 -14 -165 -2 -16 14 -383 14 -440 0 -22
-5 -75 -10 -117 -10 -43 0 -78 -3 -78 -8 0 -15 -106 -13 -135 2 -17 9 -51 16
-76 16 -67 0 -82 15 -82 84 0 34 5 61 12 65 6 4 9 15 5 24 -4 13 -1 17 15 17
12 0 21 -6 21 -14 0 -11 7 -13 30 -6 16 5 42 7 57 5 27 -3 96 25 107 44 3 5 0
29 -8 53 -12 40 -11 52 6 106 l18 61 92 -5 c50 -3 104 -12 119 -20 38 -19 40
-18 79 16 18 17 42 30 52 30 10 0 37 -18 60 -41z m-4152 -182 c14 -12 37 -27
52 -34 21 -9 26 -18 26 -47 0 -41 -19 -52 -73 -42 -47 9 -85 42 -85 74 1 74
32 93 80 49z m1534 -7 c37 -14 50 -44 36 -86 -13 -38 -59 -69 -91 -61 -11 3
-22 1 -25 -4 -10 -17 -43 -9 -49 11 -7 22 -25 27 -25 8 -1 -25 -30 26 -30 52
0 57 114 107 184 80z m-4581 -193 c40 -41 47 -92 14 -101 -46 -12 -73 -5 -109
27 -28 25 -38 42 -38 65 0 34 9 40 63 41 31 1 45 -5 70 -32z m2372 -287 c127
-29 201 -51 211 -65 6 -8 19 -15 28 -15 9 0 16 -3 16 -7 0 -5 11 -21 25 -37
14 -16 25 -32 25 -36 0 -4 16 -23 35 -43 19 -20 35 -34 35 -31 0 12 49 -54 68
-93 12 -23 26 -44 32 -48 5 -3 10 -13 10 -22 0 -9 6 -24 13 -32 19 -22 37 -90
30 -109 -4 -9 -22 -29 -40 -45 -30 -26 -33 -34 -33 -84 0 -30 -7 -68 -16 -85
-13 -26 -15 -48 -10 -112 9 -106 66 -230 127 -271 28 -20 39 -35 39 -54 0 -14
10 -39 23 -54 73 -93 66 -87 110 -81 25 4 49 15 58 27 16 20 17 19 29 -39 7
-32 19 -69 26 -81 8 -12 14 -31 14 -41 0 -10 9 -35 20 -57 23 -45 26 -75 8
-76 -8 0 -9 -2 -2 -5 7 -3 8 -21 3 -52 -5 -34 -3 -51 7 -63 8 -8 14 -27 14
-40 0 -14 6 -33 14 -44 24 -35 34 -90 25 -136 -5 -24 -11 -96 -14 -159 -11
-228 -28 -301 -83 -363 -33 -37 -105 -78 -153 -87 -110 -21 -416 -7 -443 20
-6 6 -27 10 -47 10 -21 0 -44 7 -53 15 -8 8 -30 15 -49 15 -35 0 -161 43 -185
62 -7 6 -25 12 -40 13 -30 2 -133 45 -144 60 -4 5 -10 6 -14 2 -4 -4 -15 0
-25 9 -10 9 -24 14 -32 11 -18 -7 -47 12 -29 20 17 7 5 23 -13 17 -9 -4 -19 4
-26 20 -7 14 -18 26 -25 26 -6 0 -14 7 -18 15 -3 8 -12 15 -20 15 -8 0 -19 14
-25 30 -6 17 -21 34 -36 40 -14 5 -28 18 -31 27 -3 10 -12 32 -19 49 -10 24
-11 41 -3 72 11 43 3 58 -51 106 -20 18 -81 130 -81 150 0 5 -44 105 -70 156
-13 27 -77 194 -90 234 -18 55 -6 163 25 233 15 34 32 100 41 162 19 142 37
215 60 247 61 87 114 189 114 221 0 12 9 27 20 33 11 6 20 17 20 26 0 8 9 24
20 36 11 12 20 32 20 44 0 12 3 24 8 26 8 3 62 84 62 93 0 5 58 82 95 126 12
15 33 30 46 34 13 4 35 14 49 24 70 46 196 63 295 41z m1654 -148 c4 -6 40
-14 81 -17 41 -3 77 -10 78 -16 2 -5 14 -9 27 -9 36 0 55 -10 55 -31 0 -16 7
-19 41 -19 33 0 45 -6 66 -30 13 -16 31 -30 39 -30 8 0 14 -6 14 -14 0 -7 10
-20 23 -29 l22 -15 -30 -12 c-20 -7 -36 -8 -51 -2 -17 9 -165 22 -279 26 -18
1 -41 12 -58 28 -16 15 -42 30 -57 33 -16 4 -47 15 -69 26 -22 10 -44 19 -49
19 -13 0 -21 35 -15 60 3 12 14 20 27 20 12 0 31 7 42 15 21 16 82 14 93 -3z
m-2904 -1334 c32 -14 30 -48 -2 -63 -25 -11 -30 -34 -12 -52 17 -17 3 -43 -22
-43 -19 0 -21 4 -16 39 7 57 -26 67 -61 19 -19 -26 -41 -22 -48 8 -17 69 84
127 161 92z m721 -920 c4 -5 1 -15 -5 -21 -17 -17 -13 -31 4 -17 13 11 19 8
40 -14 14 -15 25 -34 25 -42 0 -7 4 -14 10 -14 5 0 12 -11 16 -25 3 -14 10
-25 15 -25 4 0 11 -16 15 -35 3 -19 10 -38 15 -41 5 -3 9 -12 9 -20 0 -11 -11
-7 -42 12 -91 57 -198 151 -198 174 0 10 -7 31 -15 46 -18 35 -19 56 -4 71 9
9 24 5 60 -14 27 -14 52 -30 55 -35z m-47 -205 c36 -20 71 -41 78 -47 6 -6 30
-22 52 -35 48 -29 76 -86 61 -126 -5 -14 -16 -25 -25 -25 -17 0 -18 -2 -9 -24
3 -9 15 -16 26 -16 10 0 17 4 14 8 -9 15 23 52 39 46 21 -8 19 -36 -5 -62 -24
-25 -25 -32 -5 -32 22 0 18 -17 -9 -35 -25 -17 -60 -10 -52 10 6 15 -31 56
-68 75 -15 8 -45 34 -66 58 -33 36 -53 73 -112 199 -10 20 -5 43 9 43 3 0 36
-17 72 -37z m1942 -473 c4 35 6 26 7 -37 1 -50 -2 -83 -8 -83 -5 0 -10 -18
-10 -39 0 -22 5 -43 10 -46 6 -3 10 -22 10 -41 0 -19 3 -34 8 -34 9 0 7 -144
-3 -160 -4 -6 1 -20 10 -30 10 -11 12 -20 6 -24 -5 -4 -13 0 -18 7 -11 18 -47
32 -39 15 3 -7 9 -21 12 -30 4 -10 14 -18 24 -18 15 0 18 -9 17 -50 0 -28 5
-56 11 -62 7 -7 12 -21 12 -32 0 -17 -2 -18 -10 -6 -5 8 -10 11 -10 5 -1 -10
-22 43 -39 95 -5 14 -18 42 -30 63 -22 39 -27 67 -12 67 5 0 11 10 14 23 2 12
8 31 12 42 5 15 5 17 -3 5 -9 -12 -15 -12 -35 -1 -14 7 -29 11 -35 8 -5 -4 -2
14 6 38 8 25 21 45 28 45 17 0 17 -5 5 -48 -5 -17 -6 -32 -1 -32 4 0 10 10 13
23 2 12 7 29 11 37 4 9 0 24 -8 35 -15 20 -15 20 -30 0 -14 -17 -17 -18 -26
-5 -6 8 -8 26 -5 40 3 14 7 45 10 69 4 46 15 69 15 33 0 -25 10 -28 28 -10 9
9 12 9 13 -2 0 -10 4 -7 9 5 5 11 10 74 11 140 l3 120 6 -85 c5 -74 6 -79 11
-40z m-1557 40 c3 0 14 -8 25 -19 10 -10 23 -20 29 -22 16 -6 3 -149 -14 -149
-8 0 -15 6 -15 13 -1 6 -2 18 -3 24 0 7 -5 12 -11 10 -5 -1 -9 -8 -9 -14 2
-14 -6 -16 -30 -7 -9 3 -16 15 -16 25 0 10 -7 19 -15 19 -8 0 -15 8 -15 19 0
10 -9 30 -20 44 -27 34 -25 46 10 53 16 4 35 13 42 21 10 13 13 13 24 -1 6 -9
14 -16 18 -16z m5273 -237 c3 -7 -3 -27 -12 -45 -29 -55 -35 -107 -17 -129 9
-11 22 -19 29 -19 22 0 15 -49 -12 -84 -21 -28 -23 -37 -14 -69 5 -20 17 -43
25 -52 14 -14 14 -17 -8 -35 -12 -11 -26 -19 -30 -20 -4 0 -13 -7 -21 -15 -13
-13 -18 -11 -41 12 -14 14 -26 35 -26 46 0 27 22 87 32 87 13 0 8 53 -7 80
-19 33 -19 62 2 104 15 33 15 38 -1 80 -20 52 -14 84 17 95 23 9 75 -13 84
-36z m-2249 -273 c23 -31 28 -50 13 -50 -5 0 -14 -13 -21 -29 -9 -24 -9 -34 4
-59 16 -32 13 -85 -7 -110 -8 -10 -14 -9 -30 5 -29 27 -38 58 -24 87 7 14 18
26 25 26 17 0 15 40 -4 61 -9 10 -18 36 -21 58 -5 38 -4 41 19 41 15 0 32 -11
46 -30z m-2976 -3552 c2 -6 1 -32 -2 -58 -6 -48 3 -166 15 -207 17 -54 -58
-11 -161 93 -33 33 -74 94 -74 110 0 8 67 34 89 35 14 0 44 9 66 19 48 22 62
24 67 8z m4196 -6550 c2 -4 19 -8 37 -8 64 0 125 -38 125 -77 0 -20 -5 -23
-40 -23 -27 0 -40 4 -40 13 0 8 -19 20 -42 27 -24 8 -54 22 -67 32 -13 10 -30
18 -37 18 -8 0 -14 5 -14 10 0 6 -17 11 -37 11 l-38 2 35 7 c40 8 113 1 118
-12z"/>
<path d="M4466 16624 c-54 -18 -106 -40 -115 -48 -10 -9 -26 -16 -37 -16 -11
0 -24 -4 -29 -9 -6 -5 -44 -27 -85 -49 -41 -21 -97 -54 -125 -73 -74 -50 -36
-49 131 5 76 25 184 60 239 77 168 53 199 66 212 86 11 17 10 23 -6 41 -25 30
-65 27 -185 -14z"/>
<path d="M4394 16416 c-56 -29 -142 -97 -193 -152 -22 -25 -41 -48 -41 -50 0
-3 -7 -12 -15 -20 -15 -16 -21 -73 -7 -75 4 0 23 -2 42 -4 120 -14 174 -13
203 1 16 9 38 13 50 10 22 -5 108 8 147 24 23 10 39 30 77 99 12 21 11 29 -7
62 -11 21 -17 46 -13 54 19 52 -165 90 -243 51z"/>
<path d="M5355 15670 c-3 -5 -18 -10 -32 -10 -14 0 -48 -13 -75 -30 -26 -16
-52 -30 -57 -30 -16 0 -142 -70 -180 -100 -52 -41 -112 -70 -143 -70 -30 0
-68 -31 -68 -55 0 -13 14 -15 83 -13 45 2 111 -3 147 -11 72 -16 179 -16 194
-1 6 6 20 10 33 10 14 0 40 17 63 40 30 30 40 48 40 73 0 18 7 59 15 90 8 32
15 66 15 76 0 23 -26 46 -35 31z"/>
<path d="M3848 18554 c-38 -38 46 -84 166 -92 l79 -5 -6 42 c-3 24 -8 45 -11
49 -9 9 -220 15 -228 6z"/>
<path d="M7286 17785 c-8 -8 -31 -15 -50 -15 l-36 0 0 -70 c0 -77 4 -82 72
-94 29 -5 41 -2 62 16 l26 23 -15 68 c-19 93 -28 103 -59 72z"/>
<path d="M9703 16872 c-37 -4 -56 -23 -58 -59 -2 -42 32 -59 152 -72 59 -7
127 -15 150 -18 l42 -5 -17 -37 c-9 -20 -18 -38 -19 -40 -6 -9 -148 1 -160 11
-10 8 -17 8 -25 0 -15 -15 -62 -16 -53 -2 14 23 -35 8 -54 -16 -26 -33 -26
-50 0 -93 l20 -34 118 7 c100 6 120 5 131 -8 7 -9 23 -16 37 -16 l24 0 -23
-25 c-22 -23 -32 -25 -160 -31 -125 -6 -139 -9 -162 -31 -14 -13 -26 -25 -26
-27 0 -17 34 -78 45 -83 8 -3 15 -12 15 -20 0 -11 5 -13 18 -8 30 14 79 17 86
7 4 -6 44 -8 104 -5 64 3 107 1 127 -7 17 -7 26 -14 20 -16 -5 -1 -86 -8 -179
-14 -151 -9 -171 -9 -179 5 -7 13 -16 7 -51 -32 -39 -43 -41 -48 -27 -64 9 -9
24 -28 33 -42 18 -26 81 -47 142 -47 20 0 36 -4 36 -9 0 -13 -66 -18 -114 -8
-26 5 -43 4 -50 -4 -8 -8 -7 -13 2 -16 9 -4 7 -10 -9 -24 -33 -29 -57 -32 -96
-14 -34 16 -37 16 -62 -2 -30 -23 -37 -52 -21 -82 15 -29 54 -27 78 4 11 14
27 25 35 25 16 0 80 -73 89 -100 3 -10 18 -13 57 -11 74 4 202 -10 195 -21 -3
-5 -66 -8 -141 -6 l-136 3 -15 -42 c-15 -40 -15 -45 5 -86 l20 -42 104 3 c112
4 239 -6 222 -16 -6 -4 -12 -16 -14 -27 -4 -19 -12 -20 -164 -20 l-159 0 -19
-33 c-16 -28 -17 -37 -7 -62 23 -55 20 -55 287 -63 76 -3 128 -9 137 -16 12
-10 19 -4 40 38 34 65 33 83 -6 121 -26 27 -35 30 -50 21 -16 -10 -18 -8 -18
14 0 14 5 25 10 25 6 0 10 -4 10 -10 0 -39 74 58 76 100 2 39 -18 100 -33 100
-7 0 -13 5 -13 11 0 6 7 9 15 5 9 -3 15 0 15 10 0 8 7 22 15 31 9 8 19 28 22
44 6 32 23 40 23 11 0 -10 11 -28 25 -40 14 -12 25 -26 25 -32 0 -5 11 -10 25
-10 14 0 25 5 25 10 0 6 5 10 11 10 7 0 18 8 25 18 15 19 19 62 6 62 -5 0 -15
11 -22 24 -17 32 -39 40 -59 22 -19 -17 -68 -11 -94 13 -22 19 -18 81 6 106 9
8 18 28 22 45 6 28 7 29 24 12 10 -9 21 -29 25 -45 8 -33 48 -77 54 -59 2 7
10 12 18 12 14 0 44 49 44 73 0 8 -13 29 -29 48 -29 33 -31 33 -63 21 -64 -25
-74 -24 -102 13 l-27 35 27 56 c25 52 26 58 14 97 -8 23 -20 50 -28 59 -13 15
-11 23 17 66 36 57 39 90 11 122 -26 30 -26 74 2 100 12 11 25 20 28 20 11 0
4 80 -8 92 -7 7 -40 14 -75 16 -95 5 -328 7 -364 4z"/>
<path d="M10241 16807 c-13 -17 -35 -145 -36 -214 0 -41 5 -57 24 -77 22 -23
26 -24 51 -11 40 21 42 36 15 119 -22 68 -23 77 -10 103 20 37 19 56 -3 76
-22 20 -26 21 -41 4z"/>
<path d="M7142 16415 c-27 -30 -27 -44 -4 -84 16 -30 63 -53 87 -44 6 2 15 19
21 38 9 27 8 41 -2 61 -8 15 -14 33 -14 40 0 25 -64 17 -88 -11z"/>
<path d="M7148 16224 c-16 -8 -29 -22 -30 -32 -4 -46 6 -77 29 -96 24 -18 25
-20 7 -26 -10 -4 -22 -2 -26 4 -5 6 -8 1 -8 -12 0 -14 -4 -21 -11 -16 -14 8
-29 -14 -29 -41 0 -19 58 -85 75 -85 5 0 16 -7 25 -15 27 -24 67 -4 75 37 5
25 0 45 -21 82 -16 29 -23 51 -17 55 14 8 43 66 43 85 0 22 -49 76 -68 76 -10
-1 -29 -8 -44 -16z"/>
<path d="M8223 16184 c-28 -32 -29 -68 -3 -94 11 -11 20 -24 20 -30 0 -5 5
-10 11 -10 6 0 -6 -20 -27 -45 -35 -44 -36 -47 -26 -84 16 -53 50 -69 91 -45
17 10 31 24 31 30 0 7 5 14 12 16 23 8 13 65 -17 90 -33 29 -29 53 10 68 33
13 32 38 -5 88 -35 49 -64 54 -97 16z"/>
<path d="M10135 14885 c-30 -65 -12 -149 33 -158 33 -6 33 -6 72 42 l30 39
-24 29 c-48 54 -60 64 -72 59 -7 -3 -15 3 -17 12 -3 12 -10 5 -22 -23z"/>
<path d="M10382 14851 c-39 -37 -40 -52 -4 -92 26 -29 31 -31 60 -21 42 14 73
47 65 69 -9 28 -55 73 -73 73 -8 0 -30 -13 -48 -29z"/>
<path d="M10384 14488 c-12 -6 -31 -27 -43 -49 l-22 -39 30 -44 c36 -52 37
-64 12 -108 -18 -31 -18 -35 -3 -63 19 -34 36 -35 90 -7 34 18 46 62 17 62 -8
0 -15 4 -15 8 0 5 -11 15 -25 22 -34 18 -32 31 14 80 44 47 44 61 -2 112 -27
30 -35 34 -53 26z"/>
<path d="M9159 13177 c-41 -50 -43 -69 -12 -110 29 -37 47 -45 58 -26 4 5 18
14 31 19 34 13 33 69 -1 106 -14 15 -25 31 -25 35 0 19 -26 6 -51 -24z"/>
<path d="M10142 12310 c-14 -6 -25 -21 -28 -40 -4 -16 -13 -30 -20 -30 -10 0
-13 -13 -12 -51 1 -28 6 -53 10 -55 12 -7 10 -54 -2 -54 -5 0 -10 -7 -10 -16
0 -8 -7 -22 -15 -30 -8 -9 -15 -24 -15 -34 0 -11 -9 -24 -21 -30 -64 -35 -84
-84 -74 -186 4 -53 2 -66 -11 -71 -25 -9 -36 11 -41 79 -4 56 -2 67 20 100 28
40 22 48 -31 48 -40 0 -144 -21 -172 -35 -14 -6 -46 -18 -72 -25 -27 -7 -48
-16 -48 -20 0 -15 -86 -32 -155 -31 -75 2 -85 19 -85 145 0 68 -4 108 -13 120
-15 21 -64 24 -122 8 -62 -18 -66 -23 -55 -62 6 -19 10 -72 10 -118 0 -64 -3
-84 -15 -88 -8 -4 -15 -15 -15 -25 0 -11 -7 -22 -15 -24 -49 -16 -51 -17 -30
-24 11 -4 36 -15 57 -24 20 -9 58 -21 84 -27 104 -24 298 -149 376 -244 65
-77 84 -92 103 -76 9 8 29 9 55 5 33 -6 40 -4 40 9 0 13 13 16 60 18 33 1 70
2 82 2 36 1 31 -20 -9 -32 -21 -7 -72 -14 -113 -17 -95 -5 -100 -6 -100 -18 0
-5 -7 -7 -15 -4 -20 8 -10 -41 25 -118 32 -69 54 -93 73 -77 16 13 157 20 157
7 0 -42 -46 -65 -117 -61 -39 3 -43 1 -43 -19 0 -34 38 -146 57 -167 9 -10 21
-15 27 -10 6 4 23 9 39 11 21 2 27 -2 27 -17 0 -22 -25 -47 -39 -38 -5 3 -11
0 -14 -8 -9 -23 10 -86 42 -137 32 -51 45 -92 56 -172 10 -71 30 -112 83 -165
l47 -48 50 11 c28 7 61 17 73 24 29 16 45 5 38 -25 -4 -15 -2 -24 5 -24 22 0
-13 -30 -35 -30 -11 -1 -43 -7 -71 -14 -45 -12 -50 -16 -53 -44 -3 -32 25
-142 37 -142 4 0 24 9 45 20 47 23 56 19 56 -26 0 -37 -22 -56 -43 -35 -20 20
-47 -17 -47 -66 0 -47 11 -75 42 -110 12 -13 18 -29 14 -40 -6 -19 -56 -43
-89 -43 -37 0 -46 -58 -22 -149 12 -49 12 -63 0 -106 -57 -205 -78 -272 -96
-304 -11 -20 -32 -56 -45 -81 -31 -54 -63 -90 -81 -90 -7 0 -22 9 -33 20 -26
26 -34 25 -50 -7 -43 -85 -74 -102 -120 -65 -17 14 -22 29 -23 68 0 40 7 63
45 129 27 48 48 100 53 130 4 27 15 60 25 73 11 13 16 30 13 38 -6 17 -19 18
-28 3 -4 -6 -12 -8 -19 -6 -7 3 -12 -10 -13 -33 -1 -20 -7 -48 -13 -61 -10
-25 -13 -30 -67 -115 -17 -28 -39 -69 -48 -91 -21 -53 -56 -70 -95 -46 -59 35
-52 148 15 221 41 46 69 146 70 249 0 62 -3 75 -23 93 l-23 21 6 -28 c4 -15 8
-34 11 -40 2 -7 -1 -13 -6 -13 -6 0 -10 -18 -10 -40 0 -22 -4 -48 -9 -58 -5
-9 -14 -39 -20 -67 -15 -63 -40 -90 -75 -81 -17 4 -31 19 -42 44 -20 49 -20
78 1 141 24 73 28 274 7 354 -8 31 -19 57 -24 57 -29 0 -49 17 -41 36 10 27
-6 60 -52 105 -25 24 -45 50 -45 57 0 6 -4 12 -8 12 -5 0 -17 19 -28 43 -10
23 -33 59 -51 79 -17 20 -44 55 -59 78 -32 47 -58 54 -48 13 4 -16 11 -37 17
-48 13 -26 10 -104 -5 -123 -15 -17 -12 -151 3 -200 9 -28 8 -37 -7 -53 -14
-15 -18 -34 -16 -72 9 -190 1 -404 -17 -450 -6 -16 -11 -47 -11 -70 0 -39 5
-46 67 -102 37 -33 90 -81 118 -106 27 -25 82 -71 121 -101 38 -31 106 -87
150 -124 44 -38 114 -96 155 -130 41 -33 121 -101 179 -149 58 -49 110 -93
115 -97 103 -83 341 -284 365 -308 33 -34 222 -181 243 -190 18 -7 198 -40
221 -40 3 0 6 785 6 1745 l0 1745 -23 0 c-24 0 -87 -51 -87 -70 0 -6 -17 -19
-38 -28 -81 -36 -107 -74 -95 -135 7 -36 66 -66 95 -48 23 15 28 14 28 -4 0
-8 -4 -15 -9 -15 -5 0 -11 -9 -14 -19 -3 -13 -17 -22 -41 -27 -44 -8 -64 -34
-71 -95 -5 -34 -1 -51 14 -77 18 -28 25 -31 48 -26 16 4 35 13 45 21 10 9 18
11 22 4 16 -25 -43 -83 -96 -96 -34 -9 -67 -92 -53 -135 7 -21 57 -50 87 -50
34 0 16 -34 -28 -54 -63 -29 -91 -96 -70 -162 7 -24 63 -37 90 -22 22 12 30
-10 15 -38 -8 -16 -21 -24 -38 -24 -30 0 -81 -46 -81 -74 0 -12 -4 -28 -9 -35
-6 -9 -6 -22 0 -32 5 -11 5 -19 -1 -21 -12 -4 57 -51 76 -51 7 0 14 -6 14 -14
0 -7 -7 -13 -15 -13 -19 0 -55 -20 -73 -40 -8 -10 -11 -37 -9 -79 3 -57 6 -67
35 -92 l32 -29 -30 0 c-18 0 -33 -6 -36 -15 -4 -8 -12 -15 -19 -15 -9 0 -15
21 -18 68 -4 68 1 550 8 652 9 158 6 451 -5 465 -19 23 -43 18 -85 -15 -44
-35 -39 -34 -60 -14 -10 10 -22 13 -33 9 -9 -4 -36 -9 -59 -11 -48 -3 -78 -28
-99 -82 -8 -22 -12 -27 -9 -12 2 14 -2 37 -9 51 -8 16 -10 32 -5 41 8 14 17
71 22 136 2 27 17 30 17 3 0 -11 8 -33 18 -50 15 -27 23 -31 58 -31 34 0 48 7
87 43 43 39 46 45 38 73 -19 67 -26 73 -83 68 -72 -6 -85 -11 -92 -38 -8 -33
-33 -40 -47 -14 -7 14 -9 46 -5 92 11 110 11 111 53 70 36 -37 40 -37 112 -20
13 3 34 15 46 26 24 23 44 26 46 8 1 -7 2 -52 3 -99 1 -94 17 -129 60 -129 40
0 54 50 60 213 6 173 -2 207 -44 207 -16 0 -33 -6 -37 -12 -15 -24 -51 -38
-75 -30 -13 5 -34 5 -48 1 -14 -4 -41 -7 -61 -8 -42 -1 -79 -29 -79 -60 0 -11
-4 -21 -9 -21 -28 0 -29 117 -1 153 21 26 27 57 11 57 -5 0 -11 15 -14 33 -3
17 -11 52 -19 76 -10 35 -10 45 -1 48 7 3 15 26 19 52 4 31 13 52 25 59 16 10
19 9 19 -6 0 -35 86 -55 133 -31 28 15 56 49 57 70 0 17 28 34 38 24 3 -3 0
-5 -6 -5 -7 0 -12 -4 -12 -9 0 -4 21 -11 47 -15 61 -8 78 9 87 91 5 47 4 62
-7 66 -19 7 -107 -12 -107 -24 0 -5 -37 -9 -83 -9 -50 0 -88 -5 -95 -12 -19
-19 -42 9 -42 51 1 33 5 59 25 149 7 29 5 32 -16 31 -13 0 -34 -4 -47 -9z
m183 -1474 c-6 -28 -12 -35 -38 -40 -89 -15 -104 -19 -134 -32 -18 -8 -33 -21
-33 -28 0 -8 -7 -17 -15 -20 -22 -8 -40 41 -26 71 6 13 8 29 5 37 -4 11 3 17
23 21 15 4 33 8 40 10 7 2 15 0 18 -6 11 -17 86 -7 99 13 6 10 19 18 28 18 10
0 18 6 18 13 0 6 5 4 11 -5 5 -10 7 -33 4 -52z m-17 -236 c20 -67 18 -71 -35
-69 -36 2 -65 -6 -115 -29 -36 -17 -68 -35 -70 -39 -3 -5 -3 -3 -2 4 2 6 -2
13 -8 15 -13 5 -18 78 -6 78 4 0 8 6 8 13 0 25 34 36 73 22 29 -10 40 -10 54
0 10 7 30 15 46 19 15 3 27 11 27 16 0 24 16 6 28 -30z"/>
<path d="M10766 12245 c-9 -14 -23 -25 -31 -25 -8 0 -15 -4 -15 -8 0 -10 -59
-32 -86 -32 -28 0 -53 -46 -43 -79 5 -14 11 -38 14 -53 3 -16 12 -28 19 -28 8
0 16 -6 19 -12 6 -18 73 20 115 65 9 9 22 17 29 17 10 0 13 24 13 90 0 50 -4
90 -9 90 -5 0 -16 -11 -25 -25z"/>
<path d="M9651 12110 c-18 -4 -36 -12 -40 -17 -3 -4 -45 -8 -93 -9 -81 -1
-118 -11 -118 -34 0 -4 15 -13 33 -20 17 -8 40 -20 50 -29 16 -13 21 -13 46 2
16 9 36 17 44 17 13 0 50 27 97 71 10 9 24 19 31 22 21 8 -9 7 -50 -3z"/>
<path d="M10752 12004 c-12 -8 -22 -21 -22 -27 0 -20 -43 -54 -78 -62 -40 -8
-58 -35 -67 -97 -9 -61 3 -82 49 -84 30 -1 42 5 66 33 16 18 32 33 35 32 3 0
19 4 35 10 l30 10 0 100 c0 108 -4 116 -48 85z"/>
<path d="M10419 11848 c-13 -18 -29 -37 -36 -43 -6 -5 -13 -23 -15 -40 -4 -31
-11 -23 -22 27 -3 15 -15 30 -27 33 -20 7 -154 -29 -173 -46 -10 -9 19 -128
37 -146 9 -9 27 -11 62 -6 48 6 76 25 101 68 10 17 15 18 60 7 45 -10 50 -9
67 10 12 14 17 38 17 82 0 90 -30 112 -71 54z"/>
<path d="M10717 11744 c8 -23 -28 -63 -77 -85 -53 -24 -68 -48 -73 -112 -2
-26 2 -43 16 -58 28 -30 70 -18 122 35 23 24 53 46 66 48 23 3 24 7 27 96 l3
93 -45 -2 c-30 -2 -42 -7 -39 -15z"/>
<path d="M6565 11690 c-3 -5 -1 -10 5 -10 6 0 18 -7 26 -15 9 -8 27 -18 42
-21 15 -3 49 -14 75 -25 26 -11 53 -17 60 -13 7 4 9 4 5 -1 -4 -4 16 -19 45
-33 29 -13 71 -34 95 -45 25 -13 42 -27 42 -38 0 -10 6 -20 13 -22 9 -4 8 -8
-3 -17 -12 -9 -1 -10 48 -8 34 3 62 3 62 2 0 -12 -51 -54 -64 -54 -9 0 -16 -6
-15 -12 1 -7 -3 -26 -9 -41 -25 -59 -22 -61 91 -53 56 4 129 7 162 6 33 -1
107 -1 165 0 91 1 109 -1 131 -19 25 -20 91 -38 119 -32 8 2 19 8 23 14 6 9
10 9 13 1 3 -7 13 -10 22 -7 12 3 23 -5 32 -21 7 -14 17 -26 22 -26 4 0 8 -6
8 -13 0 -17 55 -67 72 -67 7 0 27 -20 43 -45 17 -25 35 -43 42 -40 6 2 27 0
45 -5 21 -6 36 -6 42 0 7 7 6 10 -2 10 -7 0 -12 6 -12 13 0 13 -63 67 -79 67
-5 0 -11 4 -13 8 -4 10 -200 176 -233 198 -13 8 -26 26 -29 38 -7 29 -21 35
-111 46 -73 10 -300 58 -277 59 6 1 12 6 12 11 0 12 -77 13 -82 1 -1 -4 -12
-5 -23 0 -18 7 -18 8 -2 8 10 1 25 7 32 15 12 12 6 14 -45 14 -33 0 -62 -4
-65 -9 -9 -14 -55 13 -55 33 0 17 -6 19 -47 14 -36 -3 -52 0 -71 15 -14 10
-36 19 -51 20 -24 0 -24 1 -6 10 14 6 8 7 -22 3 l-41 -5 1 33 2 33 -53 -3
c-31 -2 -60 2 -68 9 -8 6 -23 9 -35 6 -12 -3 -22 0 -26 9 -6 16 -49 19 -58 4z"/>
<path d="M6769 11476 c-2 -2 -18 -6 -36 -9 -17 -3 -36 -8 -41 -11 -10 -6 -8
-88 2 -118 3 -10 8 -25 11 -33 2 -8 12 -15 21 -15 17 0 120 58 171 96 17 13
36 24 42 24 18 0 13 36 -7 53 -14 13 -37 17 -89 17 -38 0 -72 -2 -74 -4z"/>
<path d="M8820 11170 c0 -5 3 -10 7 -10 4 0 75 -14 158 -31 161 -32 191 -42
253 -80 20 -12 24 -12 32 1 14 22 13 22 -33 51 -52 32 -66 37 -120 44 -23 2
-96 12 -162 20 -141 18 -135 18 -135 5z"/>
<path d="M8035 10995 c-5 -2 -22 -6 -36 -9 -22 -5 -25 -11 -24 -38 2 -35 53
-147 83 -182 28 -34 42 -64 42 -90 0 -14 9 -48 20 -76 11 -28 20 -61 20 -74 0
-29 37 -185 49 -206 5 -9 12 -45 15 -80 7 -65 29 -150 47 -182 5 -10 9 -26 9
-37 0 -20 27 -48 36 -38 3 3 1 22 -6 42 -9 26 -10 92 -5 243 5 114 8 227 8
252 -1 25 -1 122 -2 216 l-2 171 -27 25 c-48 45 -175 80 -227 63z"/>
<path d="M8486 10816 c-19 -22 -22 -32 -16 -74 7 -55 42 -112 70 -112 10 0 32
11 48 25 17 14 39 25 50 25 14 0 21 9 26 31 12 62 9 69 -46 93 -88 38 -105 40
-132 12z"/>
<path d="M8876 10663 c-16 -3 -39 -11 -51 -19 -12 -8 -24 -11 -28 -8 -3 3 -12
-8 -21 -24 -23 -44 -11 -126 20 -142 12 -7 34 -10 48 -6 14 3 38 9 54 12 49
12 62 31 62 95 0 58 -20 101 -45 98 -5 -1 -23 -4 -39 -6z"/>
<path d="M8588 10604 c-4 -3 -20 -7 -35 -9 -15 -1 -38 -5 -50 -9 -38 -12 -56
-106 -31 -161 13 -28 41 -32 117 -14 60 13 81 40 80 98 -2 75 -11 96 -45 99
-16 2 -33 0 -36 -4z"/>
<path d="M8899 10395 c-3 -2 -24 -7 -47 -10 -61 -7 -84 -33 -90 -100 -6 -78 5
-89 86 -82 36 3 70 11 78 19 8 8 20 42 26 76 11 59 11 62 -13 81 -25 21 -33
24 -40 16z"/>
<path d="M8481 10289 c-31 -28 -33 -34 -27 -74 9 -68 23 -85 74 -85 45 0 99
22 118 49 16 21 24 102 13 123 -8 15 -23 18 -77 18 -61 0 -71 -3 -101 -31z"/>
<path d="M8836 10124 c-67 -18 -86 -41 -86 -103 0 -64 21 -81 100 -81 61 0 68
4 91 40 13 20 15 37 8 84 -11 80 -21 85 -113 60z"/>
<path d="M8599 10066 c-3 -3 -23 -6 -44 -7 -49 -3 -92 -26 -99 -53 -8 -28 -7
-100 0 -120 13 -34 146 -13 189 30 20 20 25 35 25 72 0 26 -4 53 -9 61 -9 14
-53 26 -62 17z"/>
<path d="M7400 9992 c-66 -49 -193 -164 -263 -237 -28 -30 -36 -46 -33 -65 3
-14 8 -47 11 -75 4 -27 13 -61 20 -75 7 -14 15 -42 19 -62 4 -21 10 -38 14
-38 4 0 13 -19 20 -42 23 -76 46 -117 65 -118 12 0 17 -9 18 -32 1 -18 3 -25
6 -15 2 9 11 17 19 17 8 0 14 10 14 23 0 12 0 126 0 254 -1 206 1 235 17 259
9 15 16 41 15 58 -3 34 10 55 73 120 87 91 83 100 -15 28z"/>
<path d="M8820 9853 c-53 -18 -66 -34 -75 -88 -5 -35 -3 -43 20 -62 38 -33
100 -31 144 5 26 22 34 38 38 74 10 86 -27 106 -127 71z"/>
<path d="M8548 9802 c-37 -3 -37 -4 -22 -27 12 -18 13 -28 4 -44 -12 -24 -14
-25 -38 -11 -20 13 -143 -9 -149 -25 -6 -20 15 -38 33 -30 11 4 39 10 64 12
24 3 52 9 62 14 13 7 20 4 28 -11 9 -16 20 -20 53 -19 23 0 51 -1 62 -3 18 -3
20 3 23 58 4 70 -12 96 -56 92 -15 -2 -44 -4 -64 -6z"/>
<path d="M8870 9610 c-8 -5 -28 -10 -43 -10 -15 0 -37 -9 -49 -19 l-20 -20 44
-43 c90 -87 128 -88 139 -2 10 71 -29 122 -71 94z"/>
<path d="M7956 7036 c-9 -22 -27 -54 -39 -70 -12 -17 -29 -43 -36 -58 -8 -16
-20 -28 -28 -28 -7 0 -13 -5 -13 -11 0 -16 -39 -63 -57 -70 -8 -3 -26 -38 -40
-79 -25 -74 -25 -75 -8 -131 31 -102 111 -170 255 -219 53 -18 96 -23 238 -27
125 -4 172 -3 172 6 0 10 -72 17 -150 14 -49 -2 -155 20 -163 33 -16 27 -94
73 -115 68 -23 -7 -33 14 -36 78 -1 25 -9 45 -20 53 -11 8 -23 41 -32 84 -13
63 -13 73 1 95 12 17 13 25 4 28 -18 6 11 46 41 57 27 9 37 45 19 67 -5 7 -6
15 -2 17 5 3 10 23 11 43 2 21 8 44 13 51 6 7 9 18 6 25 -2 7 -12 -5 -21 -26z"/>
<path d="M9027 6043 c-4 -6 -3 -14 3 -18 5 -3 10 -12 10 -20 0 -22 53 -75 90
-91 67 -29 182 -54 202 -43 17 9 17 12 -9 45 -25 32 -32 35 -64 30 -27 -4 -42
-1 -59 14 -13 11 -32 20 -44 20 -30 0 -115 43 -118 60 -3 11 -6 12 -11 3z"/>
<path d="M9825 4554 c-10 -8 -27 -14 -37 -14 -9 0 -38 -7 -63 -16 -26 -8 -58
-16 -71 -17 -14 -1 -28 -7 -32 -13 -4 -6 -33 -13 -64 -16 -32 -3 -66 -11 -75
-20 -10 -8 -28 -15 -40 -16 -11 0 -40 -10 -64 -21 -23 -12 -55 -21 -71 -21
-15 0 -28 -3 -28 -8 0 -11 -80 -51 -125 -61 -22 -5 -67 -19 -100 -30 -33 -11
-72 -23 -87 -26 -16 -3 -28 -12 -28 -20 0 -10 -10 -15 -27 -15 -28 0 -62 -15
-53 -23 3 -3 32 -1 64 4 33 4 65 5 70 1 12 -7 48 -3 56 7 23 29 152 62 165 41
4 -6 -5 -10 -23 -10 -18 0 -36 -9 -50 -24 -11 -14 -40 -30 -64 -37 -74 -20
-75 -21 -44 -32 24 -8 32 -7 41 7 7 9 19 16 27 16 9 0 21 7 28 15 8 9 29 15
56 15 23 0 46 5 49 10 3 6 16 10 27 10 12 0 54 16 94 35 40 19 79 35 86 35 8
0 18 4 24 9 5 5 45 23 89 41 44 18 94 38 112 46 17 8 35 14 40 14 4 0 40 16
78 35 39 19 74 35 78 35 5 0 21 10 35 21 l27 22 -30 -7 c-16 -4 -40 -8 -52 -8
-13 0 -23 -4 -23 -9 0 -5 -7 -9 -15 -9 -8 0 -15 6 -15 14 0 16 34 31 49 22 5
-3 11 1 15 9 8 21 -6 25 -29 9z"/>
<path d="M9143 4411 c-17 -11 -34 -17 -36 -14 -9 8 -108 -19 -145 -39 -18 -10
-41 -18 -51 -18 -9 0 -32 -13 -50 -29 -19 -17 -46 -33 -62 -36 -16 -4 -29 -11
-29 -16 0 -12 0 -12 84 8 40 10 80 26 91 37 11 12 36 22 55 24 19 1 37 7 40
12 3 4 18 12 34 16 17 4 41 13 55 20 14 8 35 14 47 14 26 0 34 8 27 26 -7 19
-22 18 -60 -5z"/>
<path d="M773 1557 c-27 -12 -29 -23 -9 -43 8 -7 16 -19 18 -26 3 -7 17 -12
31 -10 25 2 26 0 15 -18 -14 -21 -28 -26 -28 -10 0 28 -96 17 -98 -12 0 -7 -3
-22 -7 -34 -6 -19 -2 -20 48 -19 52 0 87 16 87 38 0 16 41 47 62 47 24 0 18
24 -7 29 -21 4 -45 25 -45 39 0 17 -44 30 -67 19z"/>
</g>
</svg>
