<?xml version="1.0" standalone="no"?>
<!DOCTYPE svg PUBLIC "-//W3C//DTD SVG 20010904//EN"
 "http://www.w3.org/TR/2001/REC-SVG-20010904/DTD/svg10.dtd">
<svg version="1.0" xmlns="http://www.w3.org/2000/svg"
 width="720.000000pt" height="1280.000000pt" viewBox="0 0 720.000000 1280.000000"
 preserveAspectRatio="xMidYMid meet">
<metadata>
Created by potrace 1.15, written by Peter Selinger 2001-2017
</metadata>
<g transform="translate(0.000000,1280.000000) scale(0.100000,-0.100000)"
fill="#000000" stroke="none">
<path d="M492 12783 c2 -10 12 -18 23 -19 11 -1 25 -2 30 -4 6 -1 18 -1 28 -1
9 1 20 -6 24 -16 3 -10 12 -22 20 -26 7 -4 13 -12 13 -17 0 -13 42 -55 55 -55
6 0 11 -31 13 -70 2 -49 -1 -66 -8 -55 -5 8 -10 32 -10 53 0 20 -4 37 -9 37
-16 0 -23 -40 -16 -86 6 -41 -6 -62 -19 -31 -3 9 -9 7 -19 -5 -8 -10 -17 -15
-20 -11 -4 3 -7 -3 -7 -15 0 -12 6 -22 13 -22 16 0 53 -40 61 -68 4 -11 20
-34 37 -52 27 -27 36 -31 63 -25 17 4 42 8 56 9 37 4 38 5 42 23 2 11 13 18
28 18 17 0 26 6 28 20 2 18 42 45 65 45 7 0 92 64 107 81 3 3 33 16 67 28 34
13 67 29 73 36 6 8 29 23 50 34 21 11 47 24 57 30 10 5 34 16 53 24 196 83
300 134 300 148 0 5 -270 9 -601 9 -566 0 -600 -1 -597 -17z"/>
<path d="M3391 12783 c-2 -35 -1 -38 14 -35 7 1 15 -4 19 -13 8 -21 29 -19 44
5 16 25 32 26 32 1 0 -16 -20 -31 -50 -36 -3 0 -41 -13 -85 -28 -110 -38 -128
-53 -128 -109 l1 -45 -43 -1 c-59 0 -88 -11 -81 -28 7 -17 -43 -50 -89 -60
-16 -3 -45 -18 -64 -32 -30 -22 -35 -23 -43 -8 -15 27 -37 18 -53 -22 -12 -30
-28 -44 -78 -70 -34 -18 -75 -36 -92 -40 -23 -7 -31 -15 -33 -37 -2 -17 -7
-24 -11 -17 -5 9 -20 3 -52 -20 -24 -18 -55 -40 -70 -48 -53 -31 -119 -84
-119 -97 0 -7 7 -10 18 -6 9 3 15 4 12 1 -4 -5 -95 -77 -138 -111 -10 -8 -16
-7 -23 4 -7 11 -13 10 -32 -11 -13 -14 -26 -32 -30 -40 -25 -49 -75 -104 -146
-159 -38 -29 -133 -127 -141 -144 -6 -14 -32 -45 -77 -92 -18 -19 -33 -44 -33
-56 0 -24 -37 -89 -51 -89 -5 0 -9 -5 -9 -11 0 -6 9 -9 20 -6 22 6 28 -8 8
-16 -10 -4 -10 -6 0 -6 7 -1 29 15 49 34 39 38 73 45 94 19 10 -13 10 -20 -2
-39 -18 -31 -56 -78 -94 -119 -16 -18 -37 -45 -45 -62 -8 -16 -19 -36 -26 -44
-6 -8 -12 -22 -13 -30 -5 -61 -13 -110 -22 -138 -6 -18 -8 -39 -5 -47 3 -10
-1 -15 -13 -15 -22 0 -31 -19 -31 -68 0 -28 -3 -33 -12 -24 -18 18 -28 15 -28
-8 0 -19 -12 -24 -48 -23 -7 1 -11 -1 -8 -4 11 -11 -17 -45 -45 -55 -16 -6
-36 -23 -45 -39 -9 -19 -25 -32 -44 -36 -16 -3 -29 -8 -28 -12 0 -3 0 -28 -1
-56 -1 -38 -4 -47 -12 -35 -9 12 -10 11 -6 -5 3 -14 -6 -28 -27 -44 -28 -22
-31 -29 -31 -83 -1 -45 2 -57 13 -53 7 3 16 5 18 5 2 0 4 6 4 14 0 7 9 25 20
38 10 14 16 28 13 32 -4 3 3 15 15 27 23 20 26 18 34 -21 2 -8 -7 -29 -19 -45
-14 -20 -22 -50 -25 -85 l-3 -55 38 3 c45 4 48 -10 7 -35 -19 -11 -30 -25 -30
-40 0 -14 -16 -36 -45 -60 -25 -20 -45 -42 -45 -48 0 -6 -7 -20 -15 -31 -14
-19 -15 -18 -34 6 l-19 24 -11 -44 c-6 -25 -16 -52 -21 -60 -6 -8 -17 -31 -26
-50 -9 -19 -24 -44 -33 -55 -10 -11 -27 -50 -39 -88 -12 -37 -35 -91 -50 -121
-16 -29 -32 -63 -35 -76 -11 -41 -32 -17 -30 36 2 49 7 72 45 193 15 48 19 81
15 128 -3 41 0 68 8 79 7 10 10 25 8 35 -3 9 5 26 17 37 12 11 30 49 39 84 10
34 22 74 28 88 6 14 14 33 17 43 3 9 15 17 26 17 12 0 20 7 20 17 0 14 2 14
20 -2 15 -14 23 -15 33 -6 11 9 12 19 4 51 -6 22 -15 40 -20 40 -5 0 -1 7 7
16 14 13 21 48 17 76 0 4 13 15 30 25 16 10 32 29 35 43 3 14 9 42 15 63 7 25
7 43 0 55 -6 9 -11 11 -11 5 0 -7 -10 -12 -22 -10 -17 1 -23 -3 -22 -15 1 -10
-3 -18 -8 -18 -6 0 -39 -30 -74 -67 -43 -45 -64 -77 -69 -101 -4 -20 -19 -47
-36 -63 -36 -34 -40 -92 -9 -119 16 -13 19 -25 14 -44 -3 -14 -12 -26 -19 -26
-7 0 -15 -20 -19 -50 -4 -27 -11 -52 -16 -55 -6 -3 -10 -14 -10 -24 0 -10 -7
-32 -15 -47 -8 -16 -15 -37 -15 -47 0 -21 -27 -114 -41 -139 -5 -10 -9 -38 -9
-62 0 -25 -4 -55 -10 -68 -5 -13 -14 -86 -20 -163 -6 -77 -14 -169 -17 -205
-2 -36 -9 -70 -13 -75 -5 -6 -11 -39 -15 -75 -9 -88 -42 -167 -76 -179 -20 -7
-27 -18 -32 -46 -3 -21 -14 -46 -23 -56 -16 -18 -16 -19 4 -19 12 0 22 4 22 9
0 5 9 7 20 4 19 -5 20 -7 5 -23 -11 -12 -13 -20 -6 -25 14 -8 14 -62 1 -70 -7
-4 -8 -65 -4 -183 9 -227 8 -258 0 -312 -7 -44 -6 -46 36 -81 45 -37 148 -99
165 -99 23 0 40 116 20 137 -2 2 -24 7 -48 12 -26 4 -43 12 -41 20 1 6 -2 20
-7 29 -5 10 -5 52 1 107 9 83 17 225 17 318 0 43 20 97 36 97 6 0 22 18 35 40
14 22 33 40 42 40 9 0 20 5 23 10 3 6 15 10 26 10 22 0 27 38 8 57 -12 12 -39
7 -39 -7 0 -4 -25 -33 -55 -65 -67 -71 -70 -68 -70 96 0 88 4 120 15 134 8 10
15 23 16 29 0 6 2 17 2 24 1 7 6 11 11 7 6 -3 15 5 22 17 10 20 31 49 69 95 6
7 10 19 10 27 0 9 11 23 25 32 31 20 32 31 4 39 -14 5 -31 0 -49 -14 -33 -24
-40 -15 -40 47 0 28 7 44 30 65 17 16 33 41 36 55 7 36 25 78 54 130 5 9 16
33 25 52 18 43 81 130 108 149 10 7 28 32 38 55 33 69 55 107 65 114 6 4 21
25 34 47 13 22 30 44 37 48 7 4 13 14 13 22 0 41 89 59 138 28 58 -37 56 -59
-13 -114 -30 -24 -55 -51 -55 -59 0 -9 -19 -33 -42 -54 -46 -43 -88 -100 -88
-119 0 -7 -6 -19 -12 -26 -11 -11 -9 -13 10 -8 21 5 23 3 17 -20 -9 -36 -35
-73 -51 -73 -8 0 -14 3 -14 8 0 4 -4 13 -9 20 -13 22 -62 -9 -91 -58 -14 -23
-31 -48 -39 -56 -9 -11 -12 -29 -7 -60 4 -35 2 -46 -10 -51 -17 -6 -54 -74
-54 -98 0 -9 16 -25 35 -37 21 -12 35 -27 33 -37 -3 -24 23 -150 33 -157 28
-17 -14 -127 -58 -153 -16 -9 -14 -10 10 -11 15 0 27 4 27 8 0 5 12 14 26 21
20 9 30 9 40 0 8 -6 28 -9 45 -7 20 3 33 0 36 -9 3 -7 9 -10 14 -7 5 3 9 -1 9
-8 0 -8 -14 -22 -31 -32 -24 -14 -28 -20 -18 -32 10 -12 9 -13 -5 -8 -9 3 -16
2 -16 -4 0 -5 -11 -20 -24 -33 -19 -19 -24 -35 -24 -73 0 -27 -5 -52 -10 -55
-14 -9 -28 -131 -14 -131 5 0 12 9 15 20 3 11 10 20 17 20 6 0 8 -4 5 -10 -8
-13 24 -60 42 -60 10 0 13 6 9 16 -7 17 27 89 47 101 8 4 22 26 33 48 11 22
31 46 47 53 16 8 31 20 34 28 3 8 21 21 41 30 19 8 33 17 30 19 -3 3 0 22 7
43 9 25 20 38 35 40 12 2 29 17 38 34 10 17 29 45 43 62 14 17 36 51 47 76 41
88 93 173 113 188 11 8 18 20 16 26 -3 7 8 21 24 32 16 10 29 24 29 29 0 6 13
18 30 27 28 16 30 16 54 -3 l24 -19 21 26 c12 15 21 33 21 40 0 8 9 14 19 14
20 0 101 48 101 60 0 11 42 53 80 80 56 39 94 82 114 128 11 24 28 48 38 53
10 6 18 21 18 36 0 20 4 24 20 20 11 -3 23 -1 26 4 3 5 9 7 13 4 12 -7 42 19
45 39 1 11 11 21 20 22 10 1 29 12 42 25 13 12 34 23 47 24 13 2 40 19 59 39
19 20 39 36 44 36 5 0 19 21 31 48 16 33 33 52 59 65 31 15 36 15 31 3 -9 -22
27 -40 43 -22 9 11 7 17 -7 26 -16 10 -15 10 5 5 12 -4 31 -3 43 0 l21 7 -23
24 c-24 26 -11 34 15 9 22 -22 33 -19 48 15 7 17 18 28 24 26 7 -3 24 9 38 25
14 16 32 29 40 29 8 0 16 7 20 15 3 10 19 15 44 15 45 0 62 14 62 52 0 40 20
78 45 84 22 5 49 59 38 77 -3 6 -1 7 5 3 8 -5 12 1 12 16 0 36 17 48 51 36 23
-8 28 -14 23 -32 -4 -19 3 -26 50 -49 31 -15 56 -34 56 -42 0 -9 10 -15 25
-15 18 0 25 5 25 19 0 12 11 24 28 32 16 7 34 25 40 41 11 30 39 38 49 12 3
-8 12 -13 19 -10 8 3 22 2 31 -2 14 -5 12 -8 -12 -13 -27 -6 -26 -7 12 -8 33
-1 41 2 37 13 -3 9 2 16 13 18 29 6 63 -3 63 -18 0 -19 19 -27 34 -15 10 8 19
4 36 -19 27 -35 45 -38 53 -10 4 16 14 20 45 20 22 0 42 4 44 8 2 5 28 12 58
15 34 3 47 2 35 -3 -14 -6 -4 -9 38 -9 46 -1 57 2 57 15 0 9 11 29 24 45 13
15 26 33 28 40 5 15 75 -30 81 -52 3 -10 20 -20 43 -24 42 -7 84 -35 84 -57 0
-19 57 -50 64 -35 2 7 5 2 5 -10 1 -28 19 -39 28 -17 6 16 7 15 20 -2 7 -10
13 -26 13 -36 0 -23 50 -45 61 -27 5 9 15 6 34 -10 15 -11 36 -21 46 -21 40 0
107 -41 118 -71 5 -16 15 -29 21 -29 6 0 9 -4 6 -9 -3 -5 14 -26 39 -47 25
-22 45 -44 45 -50 0 -5 9 -29 20 -52 11 -22 20 -52 20 -65 0 -14 12 -62 26
-108 14 -46 27 -93 28 -104 2 -11 7 -47 11 -80 4 -33 12 -69 18 -79 9 -19 10
-19 23 -1 16 22 18 61 4 70 -6 3 -10 53 -10 113 0 59 -3 117 -6 130 -6 21 -7
21 -20 5 -12 -17 -13 -16 -14 4 0 13 9 28 20 35 25 16 25 26 -2 55 -11 12 -22
38 -23 56 -3 45 -14 64 -27 46 -9 -14 -1 78 9 94 9 15 24 6 34 -20 13 -34 27
-44 55 -37 12 3 30 -3 44 -14 22 -18 23 -23 12 -46 -10 -23 -8 -37 11 -94 13
-37 22 -72 20 -78 -2 -6 6 -19 17 -29 11 -10 20 -25 20 -33 0 -7 7 -38 16 -68
15 -53 34 -72 34 -35 0 11 5 23 10 26 6 3 10 -1 10 -9 0 -24 20 -29 40 -11 23
21 33 7 28 -43 -2 -29 1 -37 15 -40 15 -3 17 1 11 22 -5 20 -2 26 10 26 9 0
16 -8 16 -18 0 -11 7 -33 16 -51 9 -18 13 -35 9 -39 -4 -4 -10 -1 -12 6 -6 16
-30 15 -36 -2 -7 -17 20 -96 40 -118 13 -15 17 -15 29 -3 18 18 18 22 -4 27
-19 5 -30 68 -12 68 5 0 10 11 10 24 0 13 7 26 15 30 9 3 15 18 15 34 0 35 -9
45 -26 31 -16 -13 -31 28 -15 44 6 6 11 21 11 34 0 16 4 21 15 17 8 -4 17 1
21 10 3 9 9 16 13 16 8 0 49 -125 53 -160 2 -19 10 -26 31 -28 37 -4 43 16 27
94 -17 90 -8 146 29 162 15 7 43 26 61 42 37 33 91 48 123 32 12 -5 41 -15 65
-22 23 -7 42 -19 42 -27 0 -7 12 -19 26 -25 15 -7 32 -24 38 -39 21 -50 111
-188 123 -189 12 0 53 77 53 99 0 16 73 8 78 -9 2 -5 14 -10 26 -10 12 0 50
-18 84 -40 33 -22 70 -40 80 -40 25 0 94 -56 115 -93 10 -16 22 -25 28 -21 8
4 7 9 -2 15 -7 4 -10 11 -6 15 4 4 15 0 25 -9 10 -10 24 -17 31 -17 15 0 41
-25 41 -39 0 -5 14 -19 30 -31 17 -12 30 -28 30 -37 0 -13 15 -33 72 -94 10
-10 20 -30 24 -44 3 -14 13 -29 21 -34 8 -4 23 -32 33 -62 14 -40 24 -55 40
-57 12 -2 26 -15 32 -30 6 -15 12 -22 15 -14 6 17 23 15 23 -2 0 -8 14 -21 30
-30 l30 -14 0 1789 0 1789 -1868 0 -1868 0 -10 -22 c-6 -13 -9 -18 -7 -11 3
18 -14 25 -21 8 -8 -22 -24 -18 -29 8 l-4 22 -2 -22z m-664 -769 c4 -12 -32
-27 -55 -24 -8 0 -16 -8 -19 -18 -3 -14 -11 -18 -24 -15 -10 3 -19 0 -19 -6 0
-6 -7 -11 -15 -11 -8 0 -14 -3 -14 -7 3 -21 -3 -31 -23 -37 -13 -3 -36 -18
-53 -33 -45 -43 -67 -55 -137 -74 -26 -7 -44 -17 -42 -21 3 -5 -3 -11 -13 -15
-10 -4 -28 -17 -40 -30 -26 -28 -43 -30 -43 -5 0 10 21 34 48 54 26 20 56 43
67 52 36 28 127 86 136 86 5 0 9 5 9 10 0 6 7 10 15 10 8 0 15 5 15 10 0 14
-23 13 -38 -2 -9 -9 -12 -8 -12 5 0 9 13 23 30 32 39 20 43 19 38 -10 -6 -28
6 -32 28 -10 12 11 12 19 4 35 -6 11 -9 20 -6 20 2 0 13 3 23 7 16 6 16 5 4
-11 -13 -16 -12 -17 15 -10 16 4 43 13 59 20 35 15 57 14 62 -2z m-487 -717
c0 -7 -13 -23 -30 -37 -16 -14 -30 -29 -30 -35 0 -6 -12 -28 -27 -50 -15 -22
-28 -50 -29 -62 -3 -23 -54 -97 -84 -120 -31 -24 -26 7 15 87 7 14 21 51 30
82 9 34 25 64 38 73 11 8 18 18 14 21 -12 12 14 34 39 34 13 0 24 5 24 10 0 6
9 10 20 10 11 0 20 -6 20 -13z m-230 -205 c0 -4 -6 -16 -14 -27 -7 -11 -17
-35 -21 -52 -3 -18 -10 -33 -15 -33 -4 0 -17 -15 -28 -33 -14 -25 -17 -39 -10
-52 7 -12 7 -19 0 -24 -6 -3 -22 -30 -37 -59 -17 -34 -34 -54 -50 -58 -13 -3
-25 -14 -28 -23 -8 -30 -105 -42 -127 -16 -8 9 -8 15 -2 15 13 0 72 101 72
124 0 9 7 16 15 16 7 0 18 6 22 14 4 8 23 30 41 50 17 19 32 40 32 45 0 6 14
17 30 26 17 9 30 21 30 28 0 6 17 24 38 39 38 28 52 34 52 20z"/>
<path d="M209 10574 c-7 -9 -12 -33 -12 -54 2 -30 -3 -39 -20 -47 -13 -6 -29
-30 -40 -60 -15 -42 -16 -54 -6 -77 11 -22 10 -29 0 -36 -8 -4 -10 -13 -7 -19
10 -16 55 -14 72 4 9 8 31 15 50 15 28 0 36 5 44 25 5 14 13 25 17 25 17 0 36
65 39 131 1 38 6 78 9 89 6 19 2 20 -63 20 -52 0 -73 -4 -83 -16z"/>
<path d="M5730 9770 c-12 -8 -11 -11 8 -16 18 -5 20 -9 11 -20 -16 -20 14
-172 47 -235 8 -15 14 -39 14 -53 0 -14 4 -35 9 -48 5 -13 14 -41 21 -63 7
-22 21 -51 31 -64 11 -13 19 -35 19 -50 1 -32 59 -145 60 -115 0 11 -7 29 -15
40 -8 10 -15 31 -15 46 0 15 -11 62 -25 104 -14 42 -25 89 -25 103 0 15 -4 31
-8 37 -14 16 -39 95 -57 184 -16 80 -44 160 -55 160 -3 0 -12 -5 -20 -10z"/>
<path d="M3160 7730 c-25 -3 -54 -11 -65 -17 -11 -7 -46 -15 -77 -18 -55 -6
-73 -17 -45 -28 23 -10 -16 -27 -63 -27 -25 0 -51 -4 -59 -9 -22 -14 18 -22
113 -22 69 -1 84 -3 79 -15 -4 -11 5 -14 40 -14 97 0 104 -25 10 -34 -84 -9
-113 -16 -113 -27 0 -5 15 -9 33 -9 35 0 51 -9 53 -27 2 -28 4 -33 13 -33 5 0
40 -18 77 -40 38 -22 87 -45 109 -51 42 -10 81 -27 103 -43 19 -14 65 -17 73
-4 4 6 19 11 33 11 22 0 27 3 24 23 -2 17 7 29 35 48 46 31 48 31 70 6 9 -11
26 -20 37 -20 11 0 20 -4 20 -10 0 -19 28 -10 60 20 18 17 38 30 46 30 19 0
17 10 -7 36 -19 21 -20 24 -6 38 19 20 48 21 41 3 -3 -8 2 -20 11 -27 8 -7 15
-18 15 -26 0 -15 35 -28 50 -19 14 9 12 41 -5 75 -16 32 -33 41 -55 30 -21
-11 -83 20 -94 46 -8 17 -21 23 -66 27 -74 8 -88 14 -92 40 -2 12 -10 23 -18
23 -8 1 -25 2 -37 3 -12 0 -28 8 -37 16 -8 8 -21 15 -30 15 -8 0 -22 7 -31 16
-17 17 -154 25 -245 14z"/>
<path d="M2457 7392 c-18 -7 -18 -8 0 -23 10 -8 45 -28 78 -44 33 -17 71 -40
84 -52 13 -11 35 -27 50 -34 14 -7 34 -22 43 -33 15 -18 29 -21 120 -21 100
-1 164 -14 198 -41 8 -6 40 -24 70 -39 61 -30 92 -54 85 -65 -11 -17 28 -32
90 -36 47 -2 85 -12 128 -32 34 -16 87 -37 117 -46 30 -10 101 -36 156 -58 56
-23 109 -38 117 -35 22 8 11 42 -27 78 -17 16 -43 41 -57 55 -31 30 -95 65
-103 56 -4 -3 -18 6 -31 20 -13 14 -39 29 -56 33 -18 4 -57 20 -88 36 -49 26
-122 50 -201 67 -14 3 -34 15 -46 28 -13 13 -44 27 -80 35 -32 7 -63 14 -69
15 -5 2 -28 8 -50 13 -22 6 -58 19 -80 31 -44 22 -67 25 -95 10 -15 -8 -21 -6
-30 7 -8 13 -13 14 -16 6 -10 -23 -26 -13 -22 12 6 28 -12 34 -35 11 -11 -12
-15 -12 -24 3 -17 27 -186 59 -226 43z"/>
<path d="M857 7329 c-25 -15 -21 -54 11 -86 15 -15 43 -50 62 -76 19 -27 73
-95 120 -150 47 -56 97 -120 111 -142 30 -46 307 -328 424 -431 78 -69 112
-91 245 -161 36 -18 77 -41 92 -51 32 -20 54 -7 44 26 -11 33 -85 100 -152
138 -98 55 -200 143 -289 250 -22 26 -92 100 -155 164 -63 64 -140 147 -170
185 -30 37 -68 80 -83 94 -16 14 -54 63 -84 108 -70 105 -135 154 -176 132z"/>
<path d="M2 7238 c2 -16 9 -22 23 -21 39 5 108 -18 127 -43 11 -13 27 -24 36
-24 9 -1 55 -14 102 -31 47 -17 103 -35 125 -41 181 -45 185 -45 185 -24 0 8
-30 26 -72 42 -40 15 -77 31 -83 35 -16 11 -140 59 -154 59 -6 0 -22 7 -34 15
-31 20 -170 55 -219 55 -35 0 -39 -2 -36 -22z"/>
<path d="M464 6936 c-4 -10 -14 -14 -28 -11 -33 8 -50 -8 -42 -41 4 -16 10
-42 13 -58 4 -20 15 -32 34 -40 16 -6 29 -16 29 -23 0 -7 6 -13 14 -13 21 0
25 -21 10 -63 -17 -47 -2 -91 41 -122 15 -11 40 -33 54 -49 102 -112 234 -237
291 -276 19 -13 55 -41 80 -61 101 -83 449 -238 536 -239 34 0 48 24 27 46
-19 19 -121 67 -163 77 -37 9 -246 123 -316 172 -96 69 -247 208 -311 287 -91
114 -164 188 -185 188 -23 0 -23 15 0 32 12 9 18 30 20 76 2 40 0 62 -6 58 -6
-3 -21 6 -34 21 -41 48 -57 58 -64 39z"/>
<path d="M5844 6671 c-34 -9 -68 -21 -75 -28 -8 -6 -26 -14 -41 -18 -42 -11
-65 -55 -46 -89 13 -23 31 -20 25 4 -6 23 0 24 38 10 16 -6 25 -16 22 -23 -5
-14 68 -52 91 -48 8 1 20 -3 28 -10 10 -8 14 -8 14 0 0 6 -4 11 -10 11 -5 0
-10 4 -10 8 0 5 13 7 29 4 21 -3 28 -8 24 -19 -6 -15 22 -46 67 -76 14 -8 67
-25 118 -37 57 -13 92 -27 92 -34 0 -19 104 -53 180 -59 49 -4 69 -10 81 -26
10 -12 23 -21 31 -21 7 -1 29 -14 48 -30 19 -17 39 -30 45 -30 6 0 17 -8 26
-17 8 -10 35 -34 58 -53 24 -19 51 -43 61 -53 19 -19 31 -95 34 -204 1 -60 0
-63 -36 -96 -21 -19 -38 -40 -38 -46 0 -6 -34 -27 -75 -46 -42 -20 -73 -40
-70 -46 12 -18 -21 -8 -39 12 -12 14 -26 20 -41 17 -15 -3 -26 0 -30 10 -3 9
-14 13 -30 10 -14 -3 -30 1 -36 8 -6 8 -17 14 -24 14 -7 0 -25 13 -38 30 -17
19 -31 28 -41 24 -11 -4 -16 -1 -16 10 0 9 -8 16 -20 16 -11 0 -20 4 -20 9 0
5 -11 11 -23 15 -21 5 -127 53 -167 75 -31 18 -176 61 -203 61 -16 0 -26 4
-22 9 3 6 -11 13 -32 16 -21 4 -49 11 -63 17 -14 6 -34 13 -45 15 -43 7 -105
35 -105 48 0 15 -13 20 -80 31 -24 3 -53 11 -65 17 -11 5 -28 14 -37 18 -54
26 -319 38 -433 19 -88 -14 -156 -37 -179 -60 -20 -21 -20 -22 -2 -33 10 -7
30 -22 45 -33 14 -12 53 -34 86 -49 33 -16 66 -35 73 -42 7 -7 26 -13 41 -13
15 0 37 -9 49 -20 12 -11 26 -20 32 -20 15 0 12 26 -5 40 -8 7 -15 18 -15 25
0 6 -14 31 -31 54 -29 41 -30 44 -17 84 l13 42 65 -3 c36 -2 80 -8 99 -14 l34
-10 -7 -62 c-3 -33 -15 -86 -25 -116 -16 -45 -24 -55 -43 -56 -13 0 -32 -2
-43 -3 -18 -2 -18 -3 3 -12 13 -5 26 -17 29 -27 2 -9 25 -33 51 -52 26 -19 52
-40 57 -46 42 -48 246 -144 304 -144 9 0 38 -10 64 -22 45 -21 48 -25 44 -53
-5 -30 -4 -31 60 -49 83 -24 160 -63 173 -86 8 -14 16 -16 42 -11 39 9 58 4
58 -15 0 -22 41 -27 167 -20 162 8 165 9 193 29 13 9 32 17 42 17 22 0 90 35
82 43 -7 6 45 43 81 57 15 6 29 19 32 30 3 11 14 20 24 20 11 0 19 4 19 9 0 4
27 21 61 35 33 15 63 34 66 41 8 23 43 28 63 10 18 -16 18 -18 -1 -56 -12 -21
-18 -47 -15 -57 4 -11 -2 -29 -14 -45 -11 -14 -20 -33 -20 -42 0 -10 -6 -23
-14 -29 -8 -6 -17 -24 -19 -41 -7 -43 -18 -66 -28 -59 -5 3 -14 -8 -20 -23 -6
-15 -17 -40 -25 -54 -7 -14 -11 -29 -8 -32 12 -11 -18 -76 -37 -82 -10 -4 -19
-15 -19 -26 0 -11 -4 -18 -9 -15 -5 4 -13 -8 -16 -26 -10 -43 -52 -118 -81
-144 -13 -12 -24 -27 -24 -35 0 -7 -13 -27 -30 -44 -16 -17 -31 -41 -33 -53
-2 -13 -15 -37 -30 -53 -15 -17 -27 -37 -27 -44 0 -7 -5 -15 -10 -17 -6 -2
-12 -13 -13 -26 0 -12 -6 -22 -12 -22 -15 0 -57 -45 -53 -56 1 -5 -10 -22 -25
-38 -15 -16 -27 -35 -27 -42 0 -8 -5 -14 -12 -14 -18 0 -97 -63 -104 -83 -3
-10 -17 -23 -30 -29 -13 -6 -24 -17 -24 -25 0 -7 -4 -13 -10 -13 -5 0 -10 -7
-10 -15 0 -25 -94 -19 -385 26 -86 13 -200 43 -280 74 -73 29 -161 48 -195 44
-19 -3 -25 -10 -25 -28 0 -21 10 -27 85 -53 46 -15 121 -43 165 -62 44 -18
123 -43 175 -54 52 -12 127 -28 166 -37 40 -8 82 -15 94 -15 12 0 30 -5 41
-10 28 -15 10 -43 -46 -70 -25 -12 -45 -25 -45 -29 0 -4 -21 -18 -47 -31 -27
-13 -64 -36 -84 -52 -20 -16 -40 -28 -45 -27 -16 4 -48 -13 -69 -36 -24 -27
-58 -45 -82 -45 -10 0 -37 -10 -60 -22 -38 -20 -45 -21 -80 -9 -21 7 -58 26
-83 41 -25 15 -79 40 -120 55 -41 15 -98 36 -127 47 -66 25 -97 21 -101 -13
-3 -23 6 -30 88 -72 50 -26 99 -47 108 -47 9 0 35 -15 57 -34 l39 -33 -24 -13
c-13 -7 -53 -15 -89 -17 -36 -2 -75 -9 -86 -14 -36 -17 -119 -40 -180 -50 -70
-12 -68 -12 -121 -3 -48 7 -84 -8 -84 -35 0 -23 -41 -40 -125 -51 -101 -13
-190 -33 -197 -44 -4 -6 -34 -11 -67 -11 -32 0 -62 -3 -66 -7 -4 -4 -15 -2
-26 5 -15 9 -22 7 -42 -11 -13 -12 -31 -22 -40 -22 -9 0 -17 -4 -17 -9 0 -5
-20 -17 -45 -27 -25 -9 -45 -20 -45 -23 0 -4 -15 -5 -34 -3 -18 2 -43 -1 -54
-7 -15 -8 -23 -8 -27 0 -8 13 -45 -18 -45 -38 0 -7 -6 -13 -14 -13 -7 0 -33
-15 -57 -32 -24 -18 -69 -45 -100 -61 -32 -15 -62 -34 -69 -42 -6 -7 -37 -22
-68 -31 -31 -10 -61 -22 -67 -26 -5 -5 -20 -17 -33 -27 -13 -11 -41 -23 -63
-26 -23 -4 -53 -13 -67 -21 -15 -8 -31 -14 -36 -14 -5 0 -17 -6 -25 -14 -9 -7
-45 -19 -81 -26 -36 -7 -87 -22 -115 -33 -27 -10 -67 -19 -87 -19 -22 1 -38
-5 -42 -13 -2 -7 -26 -16 -53 -20 -26 -3 -72 -13 -102 -22 -116 -34 -505 -13
-686 37 -82 23 -199 75 -271 119 -341 214 -488 373 -589 641 -19 52 -39 104
-44 115 -12 27 -81 279 -91 335 -5 25 -16 70 -25 100 -18 62 -30 111 -46 190
-10 47 -67 291 -124 525 -9 39 -27 117 -40 175 -12 58 -31 139 -43 180 -31
109 -54 230 -48 247 5 11 19 7 68 -20 76 -42 170 -73 258 -86 36 -6 110 -17
165 -26 125 -20 250 -13 265 15 6 10 10 21 10 24 0 15 -99 35 -195 40 -209 11
-413 62 -485 120 -8 7 -29 18 -47 25 -64 26 -66 31 -88 300 -8 101 -17 186
-20 189 -2 3 -49 6 -104 8 -54 1 -119 8 -142 15 -24 6 -69 13 -100 15 -31 2
-76 11 -100 20 -24 9 -70 19 -102 21 l-57 5 0 -1460 c0 -1159 3 -1461 13
-1465 9 -4 9 -6 0 -6 -10 -1 -13 -71 -13 -315 0 -343 -1 -338 58 -314 15 6 36
14 47 19 46 18 66 21 64 7 -1 -7 0 -20 4 -28 3 -8 8 -27 11 -41 4 -16 17 -31
33 -38 16 -7 41 -23 57 -36 l30 -24 -12 -63 c-7 -35 -12 -99 -11 -143 2 -64
-2 -89 -19 -125 -12 -25 -22 -55 -22 -67 0 -20 -5 -23 -40 -23 -37 0 -40 -2
-60 -46 -11 -26 -20 -52 -20 -60 0 -7 -9 -16 -21 -19 -18 -6 -20 -13 -15 -43
3 -21 3 -31 0 -24 -3 6 -13 12 -23 12 -9 0 -27 7 -39 16 -22 15 -22 15 -22
-27 l0 -42 36 6 37 6 -6 -67 c-4 -49 -2 -72 9 -86 28 -40 9 -90 -33 -86 -39 4
-43 0 -43 -45 0 -42 2 -45 28 -45 41 0 57 -13 37 -30 -11 -9 -14 -22 -10 -38
4 -18 1 -25 -15 -29 -23 -6 -27 -23 -6 -23 8 0 16 -10 18 -22 2 -15 14 -25 40
-32 l37 -11 -29 -42 c-16 -23 -30 -52 -32 -65 -2 -15 -9 -22 -20 -20 -9 1 -19
-2 -23 -7 -8 -13 84 -12 109 1 10 5 33 7 51 4 26 -5 34 -12 39 -37 3 -17 2
-37 -2 -44 -11 -21 -122 -105 -138 -105 -7 0 -29 -14 -49 -31 -33 -29 -35 -35
-35 -90 0 -63 7 -70 35 -40 10 12 33 21 58 23 35 3 42 7 47 28 3 14 18 31 34
38 15 8 30 20 33 28 6 17 35 18 50 3 9 -9 20 -8 45 4 32 16 53 14 42 -4 -3 -5
9 -27 26 -49 17 -22 32 -49 33 -60 1 -11 6 -20 12 -20 5 0 4 -4 -3 -8 -10 -7
-10 -19 2 -63 l15 -54 0 88 c1 83 2 87 24 87 34 -1 102 -35 121 -61 9 -14 16
-43 16 -71 0 -38 -6 -54 -30 -81 l-29 -34 21 -20 c28 -29 35 -106 15 -156 -9
-20 -12 -37 -6 -37 5 0 9 5 9 11 0 6 6 16 13 24 11 11 16 5 26 -35 10 -38 19
-51 44 -64 18 -8 26 -16 19 -16 -9 0 -10 -5 -4 -18 5 -9 7 -23 5 -30 -3 -8 1
-10 12 -6 11 5 18 0 22 -16 6 -22 6 -22 19 6 8 19 13 23 13 12 1 -10 5 -18 11
-18 12 0 46 -74 54 -117 3 -21 0 -35 -9 -43 -16 -13 -19 -39 -9 -88 l6 -31 34
32 c19 17 34 36 34 42 0 5 11 23 24 40 23 29 23 29 30 7 5 -15 -2 -43 -23 -87
-17 -36 -31 -72 -31 -80 0 -13 31 -15 219 -15 l219 0 6 27 c2 16 10 68 16 118
6 50 15 99 20 110 5 11 11 32 14 48 8 33 46 39 46 7 0 -11 4 -28 9 -38 22 -44
31 -96 31 -180 l0 -92 31 0 c19 0 37 7 45 17 13 17 13 17 14 1 0 -17 65 -18
1230 -18 l1229 0 7 49 c5 42 10 50 32 56 27 7 44 -8 35 -32 -3 -8 0 -11 9 -8
15 6 48 106 48 144 0 27 10 51 22 51 15 0 40 -29 34 -39 -4 -5 10 -23 29 -39
36 -29 75 -113 75 -159 0 -22 4 -23 71 -23 l72 0 -6 79 c-3 43 -13 98 -22 122
-8 24 -18 82 -22 128 -5 65 -12 93 -30 119 -23 34 -24 41 -27 187 -1 22 -4 45
-8 51 -4 6 -8 33 -9 60 -1 27 -5 60 -10 74 -4 14 -10 42 -13 62 -4 35 -3 38
21 38 18 0 24 -4 19 -15 -3 -8 -1 -15 4 -15 6 0 10 -9 10 -19 0 -11 4 -22 9
-25 4 -3 11 -32 14 -64 2 -33 13 -71 22 -86 9 -14 15 -32 12 -39 -3 -7 4 -19
14 -25 15 -10 19 -24 19 -66 0 -45 3 -55 20 -59 35 -9 54 15 46 59 -3 21 -9
55 -12 74 -3 19 -10 44 -15 55 -16 34 -37 259 -25 267 8 5 7 8 -1 8 -16 0 -38
69 -25 82 6 6 12 6 17 -2 6 -9 12 -6 21 11 l13 24 7 -32 c4 -19 13 -33 21 -33
8 0 11 -4 8 -10 -3 -5 -1 -10 4 -10 6 0 11 -6 11 -14 0 -8 4 -16 9 -18 12 -4
18 -215 7 -247 -11 -31 15 -25 29 7 5 12 15 22 22 22 7 0 13 5 13 11 0 22 29
-12 35 -42 4 -16 11 -31 16 -34 5 -4 9 -18 9 -33 0 -15 9 -38 20 -52 11 -14
20 -32 20 -40 0 -9 7 -26 16 -38 8 -12 21 -50 28 -85 8 -35 18 -73 24 -83 21
-40 74 -211 86 -279 l12 -70 97 -3 97 -3 16 41 c9 22 22 40 29 40 7 0 18 12
23 28 10 25 11 23 12 -23 1 -27 2 -58 1 -68 -2 -16 53 -17 1033 -17 l1036 0 0
3226 c0 3061 -1 3227 -17 3240 -17 13 -17 13 0 14 9 0 17 6 17 13 0 10 -13 14
-45 13 -25 -1 -45 -6 -45 -12 0 -15 -49 -59 -57 -51 -4 4 -1 13 5 19 18 18 15
28 -8 28 -11 0 -20 -4 -20 -10 0 -5 -4 -10 -10 -10 -5 0 -10 7 -10 16 0 14 -3
14 -16 3 -9 -8 -18 -9 -22 -3 -4 5 -26 24 -49 43 -24 18 -43 39 -43 46 0 15
-59 55 -81 55 -7 0 -44 10 -82 22 -50 15 -71 18 -76 10 -5 -8 -26 -10 -67 -5
-90 9 -228 16 -281 12 -41 -2 -169 7 -179 13 -5 4 -37 3 -70 -1 -33 -5 -66 -5
-76 0 -22 12 -51 10 -124 -10z m-849 -3242 c5 -5 17 -9 27 -9 13 0 17 -8 16
-35 -1 -19 -4 -32 -8 -30 -4 3 -10 -9 -14 -25 -9 -49 -63 -34 -108 29 l-27 38
25 26 c20 21 31 26 52 21 15 -4 31 -11 37 -15z m-189 -136 c25 -26 57 -66 72
-90 15 -24 33 -43 40 -43 6 0 11 -10 11 -22 -1 -17 -2 -19 -6 -5 -2 9 -9 17
-15 17 -5 0 -8 -6 -5 -14 3 -8 -5 -31 -19 -51 -13 -20 -24 -40 -24 -45 0 -6
-7 -10 -16 -10 -9 0 -39 -19 -67 -43 -29 -23 -63 -44 -77 -45 -29 -4 -71 -29
-83 -49 -4 -7 -14 -13 -20 -13 -7 0 -24 -13 -37 -29 -18 -21 -29 -26 -41 -20
-10 5 -20 2 -29 -11 -10 -15 -18 -16 -36 -8 -16 8 -30 7 -52 -5 -18 -9 -35
-11 -43 -6 -8 5 -24 9 -37 9 -24 0 -55 23 -46 33 4 3 3 11 -1 17 -4 7 -15 4
-32 -10 -27 -21 -83 -28 -83 -10 0 6 -9 10 -20 10 -11 0 -20 7 -20 15 0 8 -6
15 -14 15 -7 0 -19 7 -26 15 -7 8 -26 19 -43 23 -24 6 -30 14 -33 40 -3 22 1
35 11 38 18 7 20 30 3 37 -7 3 -1 6 13 6 15 1 32 -6 40 -15 8 -10 22 -14 39
-10 15 3 33 0 40 -7 10 -10 12 -7 7 11 -3 12 -1 20 4 16 5 -3 9 -2 9 3 0 10
64 40 103 49 15 3 27 11 27 18 0 6 26 27 58 45 31 18 64 37 72 42 70 40 122
61 164 65 55 4 68 13 73 46 4 28 20 38 61 38 28 0 43 -9 78 -47z m-3889 -2433
c1 -74 2 -197 2 -272 l1 -138 25 0 c26 0 44 -25 29 -40 -5 -4 -47 -10 -94 -12
l-85 -3 -3 27 c-3 26 -1 28 32 28 l36 0 0 201 0 201 -25 -16 c-31 -21 -65 -21
-65 0 0 9 20 35 43 58 27 25 46 55 50 75 6 27 11 32 29 29 22 -3 23 -6 25
-138z m-158 76 c9 -10 4 -22 -18 -50 -30 -37 -44 -72 -55 -133 -5 -27 -2 -33
13 -33 10 0 26 -9 37 -21 16 -18 19 -37 19 -114 0 -79 -3 -98 -21 -122 -12
-15 -31 -29 -43 -31 -75 -11 -103 131 -65 323 18 89 34 127 72 168 29 30 44
34 61 13z m352 -15 c40 -41 39 -93 -7 -229 -20 -59 -38 -130 -41 -159 l-6 -52
49 -3 c41 -3 49 -6 49 -23 0 -17 -9 -21 -65 -26 -37 -4 -69 -3 -75 3 -19 17
-7 145 21 221 47 131 56 168 50 202 -10 53 -60 59 -86 9 -16 -30 -44 -28 -48
4 -2 14 7 33 27 52 41 41 91 41 132 1z"/>
<path d="M3217 5482 c-15 -10 -36 -28 -47 -40 -11 -12 -46 -29 -78 -38 -69
-20 -131 -78 -150 -141 -21 -71 22 -219 83 -285 48 -52 132 -107 191 -124 48
-14 82 -16 194 -10 200 9 295 21 325 40 38 25 65 75 65 122 0 128 -126 337
-241 398 -30 16 -65 37 -79 46 -68 47 -214 64 -263 32z"/>
<path d="M1980 4696 c0 -7 7 -19 15 -26 8 -7 12 -16 10 -21 -3 -4 6 -16 20
-25 19 -12 25 -25 25 -53 0 -20 7 -46 15 -58 8 -12 12 -28 9 -36 -3 -9 4 -25
16 -37 l21 -21 6 20 c9 33 22 24 29 -19 4 -22 10 -40 15 -40 4 0 11 -17 15
-37 9 -50 13 -56 29 -43 10 9 16 3 26 -27 16 -49 113 -147 159 -161 37 -11 99
-21 140 -22 31 0 125 -87 125 -115 0 -13 8 -21 23 -23 13 -2 26 -10 29 -18 3
-8 13 -14 24 -14 10 0 30 -12 45 -27 15 -16 23 -21 20 -13 -4 8 -1 6 8 -5 8
-11 20 -26 26 -32 6 -7 7 -13 3 -13 -18 -2 126 -62 167 -71 243 -50 327 -55
442 -25 119 32 200 64 215 86 7 10 22 20 33 22 18 3 30 18 15 18 -3 0 -62 29
-131 65 -69 36 -129 63 -133 60 -5 -2 -16 4 -26 15 -10 11 -24 20 -32 20 -13
0 -22 4 -68 27 -12 6 -35 14 -53 17 -17 4 -34 12 -37 17 -4 5 -17 9 -31 9 -13
0 -24 4 -24 9 0 5 -15 12 -34 15 -19 4 -40 13 -47 22 -7 9 -25 14 -45 12 -17
-1 -38 2 -45 8 -21 16 -60 19 -186 14 -37 -2 -136 22 -145 34 -4 6 -10 8 -13
4 -13 -13 -104 33 -144 72 -22 22 -41 45 -41 50 0 6 -7 10 -15 10 -8 0 -15 4
-15 8 0 19 -234 235 -291 268 -10 6 -27 18 -37 27 -10 10 -25 17 -34 17 -8 0
-25 11 -38 25 -25 27 -60 34 -60 11z"/>
</g>
</svg>
