<?xml version="1.0" standalone="no"?>
<!DOCTYPE svg PUBLIC "-//W3C//DTD SVG 20010904//EN"
 "http://www.w3.org/TR/2001/REC-SVG-20010904/DTD/svg10.dtd">
<svg version="1.0" xmlns="http://www.w3.org/2000/svg"
 width="1200.000000pt" height="1200.000000pt" viewBox="0 0 1200.000000 1200.000000"
 preserveAspectRatio="xMidYMid meet">
<metadata>
Created by potrace 1.15, written by Peter Selinger 2001-2017
</metadata>
<g transform="translate(0.000000,1200.000000) scale(0.100000,-0.100000)"
fill="#000000" stroke="none">
<path d="M5872 11296 c-13 -22 -38 -43 -66 -56 -25 -11 -46 -27 -46 -35 0 -16
-23 -22 -67 -17 -37 5 -43 17 -14 25 14 3 18 11 14 26 -3 12 -8 19 -11 16 -3
-2 -11 0 -18 6 -16 13 -48 -30 -39 -53 4 -9 -4 -19 -20 -26 -21 -10 -30 -9
-47 2 -29 21 -58 1 -58 -39 0 -28 -18 -71 -21 -50 -1 6 -4 -3 -8 -19 -5 -25
-11 -28 -48 -30 -24 -1 -43 0 -43 4 0 10 -49 10 -55 0 -3 -6 5 -10 19 -10 14
0 26 -3 26 -8 0 -4 44 -15 98 -26 76 -14 104 -16 120 -7 26 14 209 15 217 1 3
-5 28 -10 56 -10 27 0 49 5 49 10 0 6 28 10 63 10 80 0 97 10 68 39 -12 12
-19 26 -16 31 9 15 62 12 79 -5 21 -22 36 -18 36 8 0 23 -24 53 -45 58 -26 5
-36 13 -31 25 3 9 -4 16 -19 20 -14 3 -23 10 -20 14 3 5 1 11 -5 15 -6 4 -8
10 -5 15 3 4 -8 6 -24 4 -16 -3 -32 0 -36 6 -10 16 14 40 32 33 12 -5 11 -1
-3 16 l-19 22 -5 -23 c-9 -35 -34 -29 -38 10 -4 42 -25 41 -50 -2z"/>
<path d="M6385 11051 c-3 -6 -24 -9 -46 -8 -28 1 -44 -4 -50 -14 -12 -23 -54
-19 -52 4 1 12 -4 17 -14 13 -8 -3 -28 -6 -44 -6 -18 0 -28 -4 -24 -10 3 -5
22 -10 41 -10 19 0 34 -4 34 -10 0 -20 60 -40 121 -40 69 0 129 -17 129 -37 0
-15 36 -18 45 -3 3 6 2 10 -3 10 -6 0 -20 11 -33 25 -13 13 -35 25 -49 25 -27
0 -62 41 -41 48 13 4 15 22 2 22 -6 0 -12 -4 -16 -9z"/>
<path d="M6844 10660 c5 -35 3 -44 -24 -71 -16 -18 -30 -36 -30 -41 0 -5 -4
-6 -10 -3 -5 3 -10 1 -10 -5 0 -6 11 -15 24 -20 31 -12 46 -39 46 -85 0 -29
-3 -36 -15 -31 -8 3 -15 2 -15 -2 0 -4 -11 -9 -26 -10 -14 -1 -23 2 -19 8 3 6
1 10 -5 10 -8 0 -10 9 -6 26 7 26 6 26 -31 21 -21 -4 -33 -4 -26 -1 13 6 -2
64 -17 64 -13 0 -21 -32 -10 -45 14 -17 2 -25 -40 -25 -40 0 -61 15 -53 36 11
30 -37 14 -57 -18 -11 -18 -20 -27 -20 -20 0 6 -4 12 -10 12 -5 0 -10 -9 -10
-20 0 -16 -7 -20 -32 -20 -18 -1 -44 -7 -58 -15 -14 -8 -44 -14 -67 -15 -61 0
-66 -22 -13 -50 16 -9 20 -15 12 -18 -41 -13 -102 -103 -102 -149 0 -38 -22
-93 -37 -93 -7 0 -13 -4 -13 -9 0 -9 -245 -21 -268 -13 -9 3 -11 17 -6 48 4
30 3 44 -5 44 -6 0 -11 11 -11 25 0 14 5 25 10 25 6 0 10 5 10 10 0 13 12 28
59 76 66 66 41 91 -39 38 -28 -19 -55 -34 -59 -34 -13 0 -7 -203 6 -207 7 -3
10 -17 6 -39 -5 -30 -3 -34 18 -36 37 -2 87 1 184 11 55 6 94 6 100 0 5 -5 26
-9 46 -9 21 0 40 -4 43 -9 3 -5 31 -11 63 -13 31 -3 59 -10 61 -16 2 -7 25
-12 53 -12 27 0 49 -4 49 -10 0 -5 20 -10 45 -10 52 0 61 15 13 23 -18 2 -58
14 -88 26 -30 11 -65 21 -77 21 -12 0 -25 5 -28 10 -3 6 -25 10 -48 10 -52 0
-65 8 -68 40 -5 55 2 130 12 130 5 0 22 13 37 30 15 16 42 35 60 41 21 7 32
18 32 30 0 10 7 19 15 19 8 0 15 5 15 10 0 6 16 10 35 10 19 0 35 -4 35 -10 0
-5 4 -10 9 -10 6 0 22 -11 37 -25 15 -14 35 -25 44 -25 9 0 20 -3 24 -7 4 -4
33 -13 64 -20 78 -18 72 -15 117 -46 46 -31 60 -33 113 -12 27 11 65 15 128
13 84 -3 88 -4 61 -17 -15 -8 -26 -20 -23 -27 3 -7 -8 -17 -26 -23 -23 -8 -29
-15 -23 -28 4 -10 10 -26 12 -36 5 -16 8 -16 39 4 21 12 41 18 54 14 12 -4 20
-2 20 5 0 6 -4 9 -9 5 -20 -12 -20 16 -1 65 11 28 18 56 15 61 -4 5 7 6 23 3
33 -7 44 3 36 33 -4 14 -12 19 -25 16 -13 -4 -19 0 -19 11 0 9 -4 16 -9 16 -5
0 -13 10 -16 23 -4 12 -15 31 -24 42 -28 34 -42 65 -35 77 4 5 2 13 -3 17 -5
3 -19 19 -31 35 l-22 29 0 -26 c0 -30 -11 -40 -34 -31 -10 4 -16 18 -16 35 0
22 -5 29 -20 29 -21 0 -28 24 -10 35 27 17 -4 85 -38 85 -7 0 -12 5 -12 11 0
12 -25 39 -36 39 -3 0 -4 -18 0 -40z"/>
<path d="M5218 10122 c-33 -38 -43 -78 -22 -90 13 -7 12 -11 -8 -24 -13 -8
-33 -18 -45 -22 -13 -4 -23 -12 -23 -17 0 -5 -13 -9 -29 -9 -16 0 -34 -7 -41
-15 -7 -8 -23 -15 -36 -15 -13 0 -24 -4 -24 -10 0 -5 -20 -10 -45 -10 -25 0
-45 -4 -45 -9 0 -5 -12 -11 -27 -14 -65 -12 -108 -27 -111 -36 -2 -6 -10 -11
-18 -11 -8 0 -32 -11 -54 -25 -22 -14 -45 -25 -52 -25 -9 0 -9 -3 0 -12 10
-10 17 -10 32 0 11 6 29 12 40 12 11 0 20 5 20 10 0 6 7 10 15 10 9 0 18 7 21
15 4 10 20 15 44 15 22 0 42 5 45 10 3 6 14 10 23 10 9 0 30 7 46 15 15 8 37
15 47 15 11 0 19 5 19 11 0 12 60 8 106 -6 15 -5 30 1 50 19 49 44 50 44 65
35 8 -5 21 -9 29 -9 12 1 12 3 -2 14 -10 7 -18 16 -18 20 0 10 260 7 279 -4
24 -12 75 2 79 23 3 15 -8 17 -97 17 -56 0 -103 4 -106 10 -3 6 -15 10 -25 10
-11 0 -22 11 -28 28 l-10 27 -1 -28 c-1 -26 -4 -28 -38 -25 -34 3 -38 6 -39
35 -1 19 4 34 12 37 15 6 20 46 6 46 -5 0 -20 -13 -34 -28z"/>
<path d="M7510 9832 c0 -4 -15 -13 -32 -21 -18 -8 -41 -21 -50 -29 -22 -19
-23 -65 -3 -86 8 -8 15 -20 15 -27 0 -7 8 -22 19 -33 10 -12 31 -43 46 -70 35
-65 88 -118 109 -110 12 5 16 0 16 -20 0 -14 -5 -35 -12 -46 -7 -10 -9 -22 -6
-26 16 -16 68 73 68 117 0 16 5 29 10 29 6 0 10 7 10 16 0 9 6 28 14 42 7 15
19 41 26 57 7 17 16 38 21 47 12 24 11 98 -1 98 -5 0 -10 -11 -10 -24 0 -13
-7 -36 -14 -52 -8 -15 -13 -31 -10 -36 3 -4 1 -8 -4 -8 -11 0 -22 34 -22 70 0
14 -5 42 -11 63 -8 30 -15 37 -34 37 -14 0 -25 5 -25 10 0 6 -27 10 -60 10
-33 0 -60 -3 -60 -8z"/>
<path d="M3786 9495 c-3 -8 -12 -15 -21 -15 -8 0 -15 -4 -15 -9 0 -5 -10 -11
-22 -15 -68 -17 -95 -79 -62 -144 12 -25 22 -32 44 -32 19 0 29 -6 33 -20 3
-12 14 -20 26 -20 14 0 21 -6 21 -19 0 -12 11 -23 29 -29 34 -12 41 -8 41 25
0 19 -5 23 -30 23 -30 0 -60 33 -40 45 14 9 64 -6 78 -23 11 -14 12 -14 12 0
0 8 9 23 21 34 39 35 50 68 36 107 -20 57 -72 107 -111 107 -21 0 -36 -6 -40
-15z"/>
<path d="M7635 9313 c3 -10 11 -40 16 -67 5 -28 13 -52 18 -55 9 -6 14 -37 32
-203 6 -60 15 -108 20 -108 5 0 9 -18 9 -41 0 -26 4 -39 12 -37 23 8 4 227
-27 313 -8 22 -14 50 -15 62 0 12 -4 25 -10 28 -5 3 -10 19 -10 34 0 16 -7 34
-15 41 -8 7 -15 21 -15 31 0 11 -5 19 -11 19 -7 0 -8 -7 -4 -17z"/>
<path d="M6637 9271 c-63 -40 -93 -113 -67 -161 14 -26 59 -56 97 -64 25 -6
35 -3 52 15 34 37 26 94 -21 146 -16 17 -18 25 -8 42 21 41 -6 52 -53 22z"/>
<path d="M5635 9049 c-109 -11 -174 -24 -187 -37 -7 -7 -20 -12 -30 -12 -10 0
-18 -6 -18 -12 0 -14 -44 -38 -69 -38 -23 -1 -51 -25 -51 -43 0 -13 7 -15 31
-10 35 7 51 -9 43 -43 -3 -12 1 -26 10 -33 9 -8 16 -22 16 -32 0 -10 5 -21 10
-24 6 -3 10 3 10 14 0 24 0 24 33 12 17 -7 33 -5 52 5 31 16 38 17 32 6 -3 -4
6 -21 19 -37 20 -25 26 -28 34 -15 8 13 11 11 16 -8 7 -25 44 -38 71 -27 22
10 46 6 54 -7 5 -7 19 -3 42 11 19 11 40 21 47 21 6 0 25 9 41 21 19 13 39 19
55 16 15 -3 24 0 24 9 0 13 36 30 56 26 21 -4 97 75 90 93 -4 11 0 18 12 22
18 4 18 6 3 38 -11 25 -23 34 -39 35 -13 0 -36 9 -52 20 -15 11 -30 17 -33 13
-4 -3 -13 0 -22 7 -18 15 -186 20 -300 9z"/>
<path d="M4574 9019 c-3 -6 3 -13 15 -16 18 -5 21 -13 21 -59 0 -29 -4 -56
-10 -59 -21 -13 -10 -54 19 -74 26 -19 33 -20 58 -9 52 23 73 57 73 120 0 50
-3 59 -27 76 -31 21 -139 36 -149 21z"/>
<path d="M6069 6138 c0 -3 -5 -82 -8 -138 -2 -51 -93 -120 -158 -120 -17 0
-34 -4 -37 -9 -3 -5 -21 -12 -40 -15 -22 -4 -36 -13 -39 -26 -4 -17 -14 -20
-65 -20 -34 0 -64 -5 -67 -11 -8 -13 218 -6 315 10 36 5 94 15 130 20 36 6
101 15 144 21 44 5 84 14 90 20 5 5 23 10 38 10 18 0 31 7 35 17 8 21 35 48
56 56 24 9 23 77 0 97 -10 8 -37 24 -60 34 -24 10 -43 23 -43 28 0 4 -27 8
-60 8 -33 0 -60 4 -60 10 0 8 -169 16 -171 8z"/>
<path d="M5370 6080 c0 -5 -10 -10 -22 -10 -26 0 -128 -49 -128 -61 0 -5 -7
-9 -15 -9 -8 0 -15 -7 -15 -15 0 -8 -6 -15 -12 -15 -17 -1 -45 -41 -54 -76 -5
-24 -4 -27 7 -16 20 18 27 15 31 -15 2 -23 8 -29 36 -31 17 -2 32 -7 32 -13 0
-13 37 -11 78 4 28 10 36 10 39 0 3 -9 26 -13 65 -13 52 0 59 2 48 15 -7 9
-29 14 -58 13 -41 -1 -56 8 -52 28 1 4 -11 13 -27 20 -19 8 -22 13 -10 13 9 1
17 8 17 16 0 10 -11 15 -35 15 -19 0 -35 4 -35 9 0 14 23 20 55 14 15 -3 26
-2 23 3 -3 5 -8 18 -12 28 -6 18 -7 18 -19 2 -12 -16 -47 -14 -47 3 0 7 49 31
65 31 5 0 22 11 37 25 15 14 35 25 45 25 10 0 25 5 33 10 11 7 4 10 -27 10
-24 0 -43 -4 -43 -10z"/>
<path d="M6871 5732 c-1 -16 -11 -27 -33 -37 -18 -7 -43 -23 -55 -34 -12 -12
-27 -21 -33 -21 -18 0 -11 -93 9 -124 21 -31 14 -66 -12 -66 -20 0 -67 -49
-67 -71 0 -39 43 -62 68 -37 6 6 15 8 19 3 5 -4 2 -10 -4 -12 -18 -6 -16 -23
1 -23 25 0 29 -20 8 -38 -10 -9 -22 -27 -26 -39 -4 -13 -11 -23 -15 -23 -5 0
-9 -31 -9 -70 -1 -55 2 -70 14 -70 19 0 18 -59 -1 -84 -8 -11 -15 -30 -15 -42
0 -12 -5 -24 -12 -26 -6 -2 -9 -12 -5 -21 4 -10 12 -14 22 -11 8 3 15 1 15 -5
0 -6 7 -11 15 -11 20 0 19 -16 -1 -24 -20 -8 -9 -26 17 -26 15 0 19 -7 19 -39
0 -71 44 -77 110 -15 19 19 40 34 47 34 6 0 13 3 15 8 6 13 77 62 91 62 7 0
29 14 47 30 22 19 40 28 52 24 32 -10 38 5 17 41 -12 19 -25 35 -29 35 -22 0
-60 -21 -60 -33 0 -16 -66 -55 -75 -45 -4 4 3 16 14 27 23 23 26 37 12 45 -14
9 -1 46 16 46 12 0 14 7 8 33 -4 17 -10 43 -13 56 -4 18 -1 23 9 19 20 -8 12
63 -9 78 -11 8 -12 13 -4 18 15 9 16 66 2 66 -17 0 -4 80 15 94 23 17 12 53
-21 68 -26 12 -31 24 -11 31 10 4 10 7 0 18 -7 7 -13 25 -13 41 0 16 -11 39
-27 56 -57 60 -98 107 -105 122 -5 11 -7 8 -7 -8z"/>
<path d="M4757 5633 c-4 -6 -6 -33 -6 -60 2 -38 8 -53 28 -71 24 -21 25 -24 9
-33 -10 -5 -18 -17 -18 -24 0 -8 -4 -15 -10 -15 -5 0 -10 -11 -10 -23 0 -13
-3 -27 -7 -31 -4 -4 -8 -21 -9 -38 -1 -17 -8 -34 -15 -39 -12 -8 -12 -10 0
-18 16 -10 20 -64 8 -98 -7 -18 -4 -22 20 -25 25 -3 28 -7 27 -35 -1 -22 3
-33 12 -33 8 0 14 -10 14 -25 0 -14 5 -25 10 -25 6 0 10 -7 10 -15 0 -8 -4
-15 -10 -15 -6 0 -6 -10 1 -27 7 -19 7 -29 0 -31 -17 -6 -13 -32 4 -32 9 0 15
-9 15 -24 0 -14 5 -28 10 -31 6 -3 10 -19 10 -36 0 -24 -4 -29 -25 -29 -14 0
-25 -4 -25 -10 0 -5 15 -10 34 -10 19 0 38 5 41 10 3 6 29 10 56 10 35 0 56 6
70 19 24 22 22 56 -3 56 -9 0 -20 4 -24 8 -4 4 5 7 19 7 17 0 27 5 27 15 0 18
16 20 23 3 3 -7 3 1 0 18 -5 30 -3 32 28 39 40 9 59 22 59 41 0 18 -15 18 -34
-1 -18 -19 -56 -20 -56 -1 0 7 9 16 19 19 11 3 22 17 26 36 4 17 13 32 21 33
8 0 20 1 27 2 21 2 27 20 10 38 -14 16 -14 20 1 42 9 15 12 27 6 31 -6 3 -10
1 -10 -4 0 -6 -13 -11 -29 -11 -20 0 -31 -6 -34 -17 -4 -16 -5 -16 -6 -1 0 9
13 28 30 42 31 27 59 34 59 16 0 -5 5 -10 10 -10 6 0 8 11 4 25 -5 20 -3 24
10 19 11 -4 16 -1 16 11 0 33 -20 55 -50 55 -16 0 -33 7 -38 16 -11 19 -4 54
9 54 14 0 11 28 -3 33 -10 3 -10 10 1 31 14 25 13 28 -14 54 -31 29 -83 35
-152 20 -28 -6 -33 -5 -33 12 0 27 -58 37 -98 16 -46 -24 -51 -21 -54 32 -2
26 -6 42 -11 35z"/>
<path d="M5348 5342 c-14 -24 -18 -53 -18 -143 0 -62 -5 -138 -12 -170 -10
-50 -9 -60 5 -83 10 -14 23 -26 30 -26 20 0 40 51 46 120 5 55 9 65 26 68 60
9 65 12 65 42 0 24 -4 30 -22 30 -51 0 -68 11 -68 42 0 42 24 64 56 49 40 -18
78 -13 102 12 25 26 28 42 10 53 -16 10 -88 24 -153 31 -47 4 -51 3 -67 -25z"/>
<path d="M5942 5198 c-23 -23 -18 -31 61 -89 22 -17 27 -28 27 -64 0 -32 5
-47 18 -53 30 -16 42 -3 42 43 0 34 6 51 28 74 42 46 49 56 56 79 7 19 4 22
-23 22 -19 0 -31 -5 -31 -13 0 -8 -10 -19 -23 -26 -20 -10 -29 -9 -67 13 -50
29 -70 32 -88 14z"/>
<path d="M5712 5148 c-15 -19 -27 -108 -14 -108 5 0 13 -32 17 -71 4 -39 10
-68 14 -63 9 13 31 16 31 4 0 -5 5 -10 10 -10 6 0 10 8 10 19 0 26 40 35 56
13 12 -15 13 -14 14 10 0 17 -8 33 -20 40 -11 7 -20 20 -20 29 0 9 -11 20 -24
23 -25 6 -35 28 -28 59 3 12 11 17 23 14 28 -7 33 9 9 33 -22 22 -62 26 -78 8z"/>
<path d="M5546 5066 c-37 -48 -35 -95 4 -124 33 -25 90 -30 90 -8 0 8 5 16 10
18 6 2 13 26 16 54 6 45 4 54 -17 72 -35 33 -72 28 -103 -12z"/>
<path d="M6000 4762 c0 -5 -11 -15 -25 -22 -14 -7 -25 -17 -25 -22 0 -17 -28
-38 -49 -38 -12 0 -21 6 -21 15 0 8 -7 15 -15 15 -8 0 -15 5 -15 10 0 6 -8 10
-18 10 -10 0 -23 5 -30 12 -16 16 -56 -6 -70 -37 -18 -40 3 -83 73 -152 76
-73 98 -84 140 -70 31 11 105 78 105 95 0 6 4 12 9 14 13 5 61 104 61 126 0
30 -33 52 -78 52 -23 0 -42 -4 -42 -8z"/>
<path d="M8478 3867 c-5 -10 -8 -36 -8 -58 0 -21 -4 -39 -10 -39 -5 0 -10 -13
-10 -30 0 -16 5 -30 10 -30 14 0 12 -74 -2 -88 -9 -9 -9 -15 0 -24 14 -14 16
-114 2 -123 -5 -3 -10 -35 -10 -71 0 -45 -5 -70 -15 -80 -8 -9 -15 -26 -15
-40 0 -13 -4 -24 -10 -24 -5 0 -10 -18 -10 -40 0 -23 -7 -52 -16 -65 -11 -17
-14 -36 -9 -63 5 -29 2 -43 -9 -55 -9 -9 -16 -20 -16 -26 0 -6 -4 -11 -10 -11
-5 0 -10 -5 -10 -11 0 -6 -11 -20 -25 -30 -13 -11 -22 -26 -19 -33 3 -8 1 -17
-5 -20 -5 -4 -7 -29 -4 -61 4 -38 2 -55 -6 -55 -6 0 -11 -7 -11 -15 0 -8 5
-15 10 -15 14 0 12 -38 -2 -42 -7 -3 -20 -42 -29 -89 -22 -104 -55 -237 -67
-264 -5 -11 -17 -45 -27 -75 -10 -30 -22 -59 -26 -64 -5 -6 -9 -17 -9 -26 0
-10 -7 -30 -15 -47 -8 -17 -19 -52 -24 -77 -5 -26 -14 -53 -20 -59 -6 -6 -11
-19 -11 -29 0 -10 -4 -18 -10 -18 -5 0 -12 -11 -16 -25 -3 -14 -10 -25 -15
-25 -5 0 -9 -9 -9 -20 0 -11 -4 -20 -8 -20 -13 0 -42 -57 -42 -82 0 -15 11
-32 30 -47 17 -12 28 -26 25 -30 -3 -5 6 -20 20 -32 13 -13 25 -29 25 -36 0
-6 9 -15 20 -18 11 -3 20 -10 20 -14 0 -4 18 -14 40 -21 38 -12 90 -59 90 -80
0 -5 6 -10 14 -10 15 0 30 -29 21 -39 -3 -3 -10 1 -15 9 -5 8 -12 12 -15 8 -9
-9 4 -48 15 -48 5 0 21 -11 36 -25 15 -14 34 -25 42 -25 8 0 23 -10 33 -22 11
-11 22 -18 27 -13 4 4 1 10 -5 12 -20 7 -15 23 6 23 30 0 51 -11 51 -26 0 -8
-9 -14 -20 -14 -11 0 -20 -5 -20 -11 0 -13 25 -39 38 -39 6 0 12 -4 14 -8 2
-4 21 -21 43 -37 22 -17 44 -36 48 -42 4 -7 17 -13 27 -13 11 0 20 -4 20 -10
0 -5 7 -10 15 -10 8 0 15 5 15 10 0 6 -5 10 -10 10 -6 0 -22 12 -35 26 -14 15
-25 23 -26 18 0 -5 -5 2 -10 15 -7 19 -6 28 5 40 13 12 19 13 40 1 14 -7 23
-16 21 -21 -3 -4 1 -10 7 -13 10 -5 10 -7 1 -12 -7 -3 -13 -10 -13 -15 0 -14
22 -10 34 7 10 13 15 11 34 -15 18 -25 19 -31 7 -31 -8 0 -15 7 -15 15 0 19
-16 19 -24 0 -3 -9 0 -15 9 -15 8 0 15 -4 15 -10 0 -13 36 -13 59 -1 10 6 23
6 32 0 11 -7 9 -9 -8 -9 -42 0 -24 -15 20 -16 45 -2 99 -13 107 -23 7 -8 36
-24 129 -71 58 -29 92 -40 124 -40 44 0 70 -14 45 -23 -7 -2 2 -11 20 -18 24
-10 58 -12 122 -9 76 5 93 9 115 30 14 13 25 30 25 38 0 9 7 13 20 9 23 -6 27
11 5 19 -8 4 -15 15 -15 26 0 18 4 19 35 14 44 -9 45 6 3 44 -24 22 -29 33
-21 41 8 8 19 2 42 -22 17 -17 31 -38 31 -46 0 -8 5 -11 10 -8 10 6 14 -17 10
-70 -2 -37 -7 -42 -48 -48 -43 -7 -49 -13 -23 -22 23 -7 59 2 76 19 17 18 36
90 25 94 -6 2 -10 19 -10 38 0 19 -4 34 -10 34 -5 0 -10 7 -10 15 0 8 -4 15
-8 15 -5 0 -15 11 -22 25 -7 14 -18 25 -24 25 -5 0 -33 24 -60 52 -28 29 -73
71 -100 93 -41 33 -345 335 -365 362 -3 4 -13 14 -22 21 -14 10 -20 10 -32 -2
-13 -14 -16 -14 -28 0 -10 13 -9 16 9 21 27 7 28 15 2 33 -11 8 -20 20 -20 27
0 7 -5 13 -11 13 -10 0 -39 24 -39 33 0 3 -18 24 -40 48 -68 73 -80 88 -80 95
0 4 -11 17 -25 30 -14 13 -25 27 -25 32 0 5 -10 20 -22 34 -40 45 -118 182
-118 208 0 9 -4 20 -9 25 -14 17 -41 112 -41 148 0 18 -3 37 -7 41 -12 11 -33
80 -33 107 0 15 -7 43 -15 62 -10 23 -15 69 -15 126 0 68 -3 90 -14 94 -12 5
-13 12 -4 39 5 18 12 58 14 88 2 30 7 64 13 75 5 11 17 47 26 80 9 33 21 70
26 83 5 13 9 52 9 87 0 35 5 65 10 67 7 2 9 75 8 208 -2 113 -6 197 -10 187z"/>
<path d="M5511 1891 c-10 -6 -10 -13 -2 -29 6 -11 12 -69 13 -129 2 -107 2
-109 -27 -141 -15 -17 -36 -32 -46 -32 -29 0 -81 -50 -74 -71 6 -17 1 -19 -34
-19 -23 0 -41 5 -41 10 0 12 -50 13 -69 1 -8 -5 -12 -18 -8 -30 3 -12 1 -24
-4 -27 -5 -3 -9 0 -9 5 0 6 -7 11 -15 11 -8 0 -15 -4 -15 -10 0 -5 -11 -10
-23 -10 -13 0 -34 -9 -47 -20 -28 -24 -54 -19 -88 17 -20 22 -24 23 -38 9 -8
-9 -32 -16 -52 -16 -25 0 -32 3 -23 9 9 6 3 10 -20 13 -19 3 -35 3 -37 -1 -13
-30 -20 -34 -36 -18 -9 8 -16 23 -16 31 0 18 -15 21 -25 6 -3 -5 -15 -10 -26
-10 -21 0 -25 -10 -8 -27 8 -8 8 -13 0 -17 -6 -4 -11 0 -11 9 0 12 -6 15 -22
9 -31 -9 -35 -14 -19 -23 8 -6 9 -11 3 -15 -6 -3 -17 3 -25 15 l-15 21 -21
-21 c-12 -12 -21 -34 -21 -50 0 -17 -11 -42 -25 -59 -32 -39 -32 -70 0 -82 43
-16 125 -24 125 -11 0 6 8 11 19 11 10 0 24 7 31 15 7 8 17 15 23 15 5 0 19
11 31 25 24 28 56 26 56 -4 1 -20 23 -51 38 -51 6 0 13 -9 17 -19 14 -46 93
-47 125 -2 15 22 54 28 65 11 11 -18 27 -11 20 9 -10 31 14 35 26 4 6 -16 13
-22 16 -15 3 6 9 12 15 12 5 0 16 7 24 15 21 21 36 19 70 -10 36 -31 35 -31
58 0 10 14 25 25 33 25 10 0 13 6 9 16 -7 17 27 54 50 54 7 0 14 8 17 18 3 13
6 12 15 -10 9 -22 20 -28 58 -34 44 -6 50 -4 71 20 19 23 22 34 16 74 -8 57
-42 123 -72 137 -16 7 -21 19 -21 47 0 20 5 40 10 43 6 3 10 15 10 25 0 10 7
25 15 34 17 17 20 72 5 81 -6 4 -10 32 -8 63 1 57 -7 102 -20 102 -4 0 -13 -4
-21 -9z"/>
<path d="M7900 1762 c0 -7 -6 -12 -14 -12 -8 0 -20 -16 -27 -35 -7 -19 -17
-35 -22 -35 -5 0 -15 -7 -23 -15 -9 -8 -12 -15 -8 -15 3 0 1 -7 -7 -16 -12
-14 -14 -14 -26 2 -10 14 -13 15 -13 3 0 -8 -18 -30 -40 -48 -22 -18 -40 -38
-40 -43 0 -15 -31 -37 -52 -38 -10 0 -18 -4 -18 -8 0 -5 -11 -15 -25 -22 -14
-7 -25 -19 -25 -27 0 -7 -11 -13 -24 -13 -14 0 -27 -4 -30 -9 -3 -4 -19 -11
-36 -15 -17 -3 -33 -14 -37 -23 -10 -26 -25 -38 -53 -41 -14 -2 -30 -10 -36
-18 -7 -9 -30 -14 -67 -14 -35 0 -57 -5 -60 -12 -4 -9 -8 -9 -14 -3 -16 20
-83 37 -98 25 -9 -7 -15 -8 -20 0 -8 13 -52 13 -60 0 -14 -22 -65 1 -65 29 0
12 -29 15 -99 11 -55 -3 -91 16 -91 47 0 18 -5 23 -25 23 -14 0 -25 3 -25 8 0
14 -114 12 -145 -2 -17 -8 -43 -19 -58 -25 -15 -6 -31 -19 -34 -28 -4 -10 -13
-24 -20 -31 -21 -21 -15 -49 14 -72 23 -18 39 -21 98 -19 69 2 70 2 73 -24 4
-34 22 -35 22 -2 0 20 5 25 27 25 21 0 24 -3 15 -12 -20 -20 -15 -58 8 -58 11
0 20 -3 20 -7 -1 -14 -27 -43 -39 -43 -15 0 -14 -15 2 -29 15 -11 77 -11 77 2
0 4 7 7 15 7 8 0 15 5 15 10 0 6 7 10 15 10 8 0 15 6 15 13 0 13 58 43 67 33
3 -3 0 -12 -7 -20 -10 -13 -9 -19 4 -31 9 -9 16 -21 16 -26 0 -5 25 -9 55 -9
44 0 57 4 67 20 13 21 68 29 68 10 0 -5 7 -10 15 -10 8 0 15 -4 15 -10 0 -16
48 -11 71 8 12 9 33 29 47 45 28 30 57 35 66 12 7 -20 42 -19 50 2 5 12 10 13
18 5 8 -8 17 -8 30 -1 12 6 18 6 18 -1 0 -5 5 -10 11 -10 7 0 9 12 7 30 -3 21
-1 29 7 26 7 -2 12 8 12 27 0 18 -2 26 -4 20 -5 -14 -29 -17 -37 -5 -2 4 4 27
14 50 13 29 25 42 39 42 11 0 23 5 26 10 3 6 13 10 21 10 8 0 38 22 67 50 37
35 60 50 80 50 15 0 27 4 27 9 0 5 9 12 19 16 11 3 23 15 26 26 4 10 12 19 18
19 30 0 150 190 132 208 -3 3 -5 0 -5 -6z"/>
</g>
</svg>
